<svg xmlns="http://www.w3.org/2000/svg" xmlns:xlink="http://www.w3.org/1999/xlink" width="1920" zoomAndPan="magnify" viewBox="0 0 1440 809.999993" height="1080" preserveAspectRatio="xMidYMid meet" version="1.0"><defs><g/><clipPath id="649935324d"><path d="M 0.238281 108 L 1399 108 L 1399 397 L 0.238281 397 Z M 0.238281 108 " clip-rule="nonzero"/></clipPath><clipPath id="1ccd7e97a5"><rect x="0" width="1404" y="0" height="534"/></clipPath><clipPath id="2a09a6b7d8"><rect x="0" width="276" y="0" height="136"/></clipPath><clipPath id="f61bf7dac9"><rect x="0" width="1070" y="0" height="151"/></clipPath><clipPath id="5e9f7f3477"><path d="M 0.679688 36 L 584 36 L 584 169 L 0.679688 169 Z M 0.679688 36 " clip-rule="nonzero"/></clipPath><clipPath id="64de2ecba1"><rect x="0" width="586" y="0" height="213"/></clipPath></defs><g transform="matrix(1, 0, 0, 1, 18, 276)"><g clip-path="url(#1ccd7e97a5)"><g clip-path="url(#649935324d)"><g fill="#000000" fill-opacity="1"><g transform="translate(0.601251, 378.110048)"><g><path d="M 317.109375 -224.734375 C 300.710938 -220.335938 289.316406 -205.539062 282.921875 -180.34375 L 262.328125 -97.96875 C 260.460938 -90.101562 259.53125 -83.171875 259.53125 -77.171875 C 259.53125 -59.316406 267.789062 -48.789062 284.3125 -45.59375 L 284.3125 -38.78125 C 259.65625 -39.1875 240.660156 -26.257812 227.328125 0 C 224.128906 -1.46875 215.132812 -9 200.34375 -22.59375 C 188.476562 -33.519531 179.144531 -38.914062 172.34375 -38.78125 L 172.34375 -45.59375 C 183.945312 -47.320312 189.75 -54.71875 189.75 -67.78125 C 189.75 -71.113281 189.414062 -74.578125 188.75 -78.171875 C 181.019531 -122.160156 173.019531 -164.019531 164.75 -203.75 C 165.019531 -202.675781 165.15625 -201.007812 165.15625 -198.75 C 165.15625 -184.882812 161.222656 -163.554688 153.359375 -134.765625 C 145.492188 -105.972656 141.5625 -84.378906 141.5625 -69.984375 C 141.5625 -57.847656 147.5625 -49.71875 159.5625 -45.59375 L 159.5625 -38.78125 C 141.425781 -32.914062 127.296875 -19.988281 117.171875 0 C 111.835938 -2.9375 105.640625 -8.132812 98.578125 -15.59375 C 90.578125 -24.65625 84.910156 -30.253906 81.578125 -32.390625 C 74.378906 -37.453125 66.378906 -39.582031 57.578125 -38.78125 L 57.578125 -45.59375 L 59.984375 -45.59375 C 75.179688 -45.59375 82.78125 -52.65625 82.78125 -66.78125 C 82.78125 -75.582031 81.445312 -85.710938 78.78125 -97.171875 C 76.113281 -107.304688 73.445312 -117.4375 70.78125 -127.5625 C 69.71875 -127.695312 67.984375 -127.765625 65.578125 -127.765625 C 57.046875 -127.765625 51.648438 -125.898438 49.390625 -122.171875 C 47.648438 -119.367188 46.78125 -113.566406 46.78125 -104.765625 L 38.390625 -104.765625 L 38.390625 -168.359375 L 46.78125 -168.359375 L 46.78125 -161.15625 C 46.78125 -156.351562 47.679688 -153.148438 49.484375 -151.546875 C 51.285156 -149.953125 54.453125 -149.15625 58.984375 -149.15625 L 66.1875 -149.15625 L 51.578125 -217.140625 C 50.117188 -223.671875 46.988281 -230.335938 42.1875 -237.140625 C 36.71875 -245.265625 31.050781 -249.328125 25.1875 -249.328125 C 21.320312 -249.328125 17.554688 -247.359375 13.890625 -243.421875 C 10.222656 -239.492188 8.390625 -235.460938 8.390625 -231.328125 C 8.390625 -227.203125 10.222656 -223.40625 13.890625 -219.9375 C 17.554688 -216.46875 19.390625 -214.46875 19.390625 -213.9375 C 19.390625 -212.601562 18.390625 -211.9375 16.390625 -211.9375 C 11.722656 -211.9375 7.820312 -213.96875 4.6875 -218.03125 C 1.5625 -222.101562 0 -226.738281 0 -231.9375 C 0 -243 5 -251.863281 15 -258.53125 C 23.789062 -264.125 34.117188 -266.921875 45.984375 -266.921875 C 55.585938 -266.921875 63.585938 -263.921875 69.984375 -257.921875 C 75.984375 -252.191406 82.25 -246.328125 88.78125 -240.328125 C 98.375 -234.328125 111.566406 -231.53125 128.359375 -231.9375 L 128.359375 -224.734375 C 113.828125 -224.734375 106.5625 -216.070312 106.5625 -198.75 C 106.5625 -194.476562 107.097656 -189.476562 108.171875 -183.75 C 110.035156 -173.082031 117.96875 -135.492188 131.96875 -70.984375 C 132.894531 -82.179688 136.957031 -103.109375 144.15625 -133.765625 C 150.550781 -160.554688 153.75 -181.484375 153.75 -196.546875 C 153.75 -214.273438 148.21875 -223.671875 137.15625 -224.734375 L 137.15625 -231.9375 C 147.425781 -233 156.890625 -236.757812 165.546875 -243.21875 C 174.210938 -249.6875 179.414062 -257.722656 181.15625 -267.328125 C 182.75 -257.859375 189.742188 -249.660156 202.140625 -242.734375 C 213.066406 -236.335938 223.734375 -232.738281 234.140625 -231.9375 L 234.140625 -224.734375 C 220.140625 -224.734375 213.140625 -216.535156 213.140625 -200.140625 C 213.140625 -195.347656 213.875 -189.882812 215.34375 -183.75 L 238.53125 -73.984375 C 240.394531 -64.921875 244.128906 -58.253906 249.734375 -53.984375 C 248.535156 -60.117188 247.9375 -65.71875 247.9375 -70.78125 C 247.9375 -79.707031 249.664062 -91.035156 253.125 -104.765625 L 272.328125 -179.75 C 273.117188 -183.34375 273.515625 -187.007812 273.515625 -190.75 C 273.515625 -198.75 271.015625 -205.910156 266.015625 -212.234375 C 261.023438 -218.566406 254.460938 -222.734375 246.328125 -224.734375 L 246.328125 -231.9375 C 266.191406 -234.332031 278.054688 -246.128906 281.921875 -267.328125 C 284.585938 -248.265625 296.316406 -236.46875 317.109375 -231.9375 Z M 317.109375 -224.734375 "/></g></g><g transform="translate(307.312823, 378.110048)"><g><path d="M 121.5625 -38.984375 C 110.363281 -37.785156 99.363281 -33.488281 88.5625 -26.09375 C 77.769531 -18.695312 69.507812 -10 63.78125 0 C 58.3125 -9.59375 49.25 -18.125 36.59375 -25.59375 C 25.257812 -32.257812 13.460938 -36.722656 1.203125 -38.984375 C 13.734375 -44.722656 20 -54.125 20 -67.1875 L 20 -109.171875 C 20 -126.234375 13.332031 -138.429688 0 -145.765625 C 17.0625 -145.765625 32.925781 -148.828125 47.59375 -154.953125 C 63.71875 -161.753906 76.242188 -171.550781 85.171875 -184.34375 C 90.503906 -174.351562 95.304688 -166.753906 99.578125 -161.546875 C 105.035156 -155.148438 112.363281 -149.890625 121.5625 -145.765625 C 116.101562 -140.960938 111.972656 -133.03125 109.171875 -121.96875 C 105.972656 -109.707031 102.441406 -101.375 98.578125 -96.96875 C 90.972656 -88.175781 77.304688 -81.3125 57.578125 -76.375 L 57.1875 -70.78125 C 56.382812 -56.113281 63.984375 -46.515625 79.984375 -41.984375 C 87.972656 -39.847656 101.832031 -38.847656 121.5625 -38.984375 Z M 86.171875 -111.5625 C 86.171875 -117.96875 82.90625 -125.703125 76.375 -134.765625 C 69.84375 -143.828125 63.578125 -148.359375 57.578125 -148.359375 L 57.578125 -83.78125 C 65.046875 -85.375 71.675781 -88.570312 77.46875 -93.375 C 83.269531 -98.175781 86.171875 -104.238281 86.171875 -111.5625 Z M 86.171875 -111.5625 "/></g></g><g transform="translate(432.676677, 378.110048)"><g><path d="M 149.359375 -40.390625 C 141.222656 -40.390625 129.691406 -35.257812 114.765625 -25 C 104.503906 -17.925781 94.175781 -9.59375 83.78125 0 C 79.644531 -7.46875 67.046875 -16.132812 45.984375 -26 C 25.992188 -35.0625 11.066406 -39.859375 1.203125 -40.390625 C 6.929688 -40.390625 11.53125 -44.851562 15 -53.78125 C 17.664062 -60.3125 19 -67.3125 19 -74.78125 L 19 -112.375 C 19 -130.632812 13 -143.160156 1 -149.953125 C 9.132812 -155.421875 14.332031 -161.019531 16.59375 -166.75 C 18.457031 -170.882812 19.390625 -178.414062 19.390625 -189.34375 C 19.390625 -209.875 12.925781 -221.671875 0 -224.734375 C 1.0625 -224.472656 2.796875 -224.34375 5.203125 -224.34375 C 15.460938 -224.34375 29.488281 -230.601562 47.28125 -243.125 C 65.082031 -255.65625 78.710938 -261.921875 88.171875 -261.921875 C 97.367188 -261.921875 105.4375 -259.457031 112.375 -254.53125 C 120.238281 -248.800781 124.171875 -241.671875 124.171875 -233.140625 C 124.171875 -227.273438 122.269531 -222.34375 118.46875 -218.34375 C 114.664062 -214.34375 109.765625 -212.34375 103.765625 -212.34375 C 91.898438 -212.34375 85.96875 -217.941406 85.96875 -229.140625 C 85.96875 -233.398438 87.367188 -237.0625 90.171875 -240.125 C 92.972656 -243.195312 96.441406 -244.734375 100.578125 -244.734375 C 108.972656 -244.734375 113.769531 -239.535156 114.96875 -229.140625 C 115.238281 -230.203125 115.375 -231.664062 115.375 -233.53125 C 115.375 -238.726562 113.335938 -243.160156 109.265625 -246.828125 C 105.203125 -250.492188 100.238281 -252.328125 94.375 -252.328125 C 82.507812 -252.328125 73.578125 -245.929688 67.578125 -233.140625 C 62.785156 -223.398438 60.390625 -211.867188 60.390625 -198.546875 L 60.390625 -152.5625 C 74.785156 -152.5625 85.710938 -155.554688 93.171875 -161.546875 C 99.835938 -166.753906 106.238281 -176.222656 112.375 -189.953125 C 118.101562 -177.953125 122.832031 -169.882812 126.5625 -165.75 C 132.03125 -159.488281 139.628906 -154.222656 149.359375 -149.953125 C 137.359375 -144.617188 131.359375 -134.957031 131.359375 -120.96875 L 131.359375 -75.578125 C 131.359375 -60.785156 137.359375 -49.054688 149.359375 -40.390625 Z M 93.171875 -68.375 L 93.171875 -126.5625 C 93.171875 -132.425781 90.039062 -136.828125 83.78125 -139.765625 C 78.976562 -142.296875 73.3125 -143.5625 66.78125 -143.5625 C 64.78125 -143.5625 62.648438 -143.425781 60.390625 -143.15625 L 60.390625 -29.796875 L 82.78125 -44.59375 C 89.707031 -50.050781 93.171875 -57.976562 93.171875 -68.375 Z M 93.171875 -68.375 "/></g></g><g transform="translate(587.632002, 378.110048)"><g><path d="M 91.578125 -86.578125 C 81.847656 -80.972656 76.984375 -76.039062 76.984375 -71.78125 C 77.378906 -69.507812 79.046875 -62.976562 81.984375 -52.1875 C 65.984375 -59.25 54.519531 -62.78125 47.59375 -62.78125 C 40.257812 -62.78125 28.859375 -59.25 13.390625 -52.1875 L 16.390625 -61.984375 C 17.722656 -66.242188 18.390625 -69.640625 18.390625 -72.171875 C 18.390625 -76.046875 13.59375 -80.847656 4 -86.578125 C 13.59375 -92.171875 18.390625 -96.96875 18.390625 -100.96875 C 18.390625 -102.832031 17.722656 -106.097656 16.390625 -110.765625 L 13.390625 -120.96875 C 28.859375 -114.300781 40.125 -110.96875 47.1875 -110.96875 C 54.382812 -110.96875 65.984375 -114.300781 81.984375 -120.96875 L 78.984375 -110.96875 C 77.648438 -106.570312 76.984375 -103.238281 76.984375 -100.96875 C 76.984375 -96.96875 81.847656 -92.171875 91.578125 -86.578125 Z M 91.578125 -86.578125 "/></g></g><g transform="translate(679.205599, 378.110048)"><g><path d="M 205.9375 -142.5625 L 205.734375 -135.96875 C 193.210938 -135.96875 182.617188 -130.96875 173.953125 -120.96875 C 166.085938 -112.03125 161.15625 -100.96875 159.15625 -87.78125 C 157.019531 -102.039062 150.851562 -113.035156 140.65625 -120.765625 C 130.457031 -128.492188 117.960938 -132.359375 103.171875 -132.359375 L 96.578125 -132.359375 L 96.578125 -84.78125 C 96.578125 -73.445312 98.441406 -64.984375 102.171875 -59.390625 C 106.566406 -52.722656 114.234375 -49.054688 125.171875 -48.390625 L 125.171875 -41.59375 C 114.898438 -40.519531 104.5 -35.71875 93.96875 -27.1875 C 83.4375 -18.65625 77.238281 -9.457031 75.375 0.40625 C 65.914062 -13.59375 54.320312 -20.59375 40.59375 -20.59375 C 33.789062 -20.59375 28.085938 -18.691406 23.484375 -14.890625 C 18.890625 -11.097656 16.59375 -6 16.59375 0.40625 C 16.59375 6.394531 19.191406 10.523438 24.390625 12.796875 C 26.660156 13.859375 27.796875 14.789062 27.796875 15.59375 C 27.796875 17.195312 26.660156 18 24.390625 18 C 18.390625 18 13.523438 14.796875 9.796875 8.390625 C 6.734375 3.191406 5.203125 -2.535156 5.203125 -8.796875 C 5.203125 -30.660156 19.597656 -43.859375 48.390625 -48.390625 L 48.390625 -132.359375 C 40.921875 -131.828125 36.390625 -129.695312 34.796875 -125.96875 C 33.722656 -123.695312 33.1875 -118.5 33.1875 -110.375 L 22.796875 -110.375 L 22.796875 -171.359375 L 32.796875 -171.359375 C 32.523438 -168.421875 32.390625 -165.6875 32.390625 -163.15625 C 32.390625 -157.019531 35.988281 -153.953125 43.1875 -153.953125 L 48.390625 -153.953125 L 48.390625 -171.359375 C 48.390625 -180.953125 46.785156 -188.445312 43.578125 -193.84375 C 40.378906 -199.238281 34.25 -202.875 25.1875 -204.75 C 39.050781 -208.738281 49.046875 -213.597656 55.171875 -219.328125 C 61.304688 -225.066406 66.707031 -234.601562 71.375 -247.9375 C 75.113281 -237.53125 81.644531 -228.0625 90.96875 -219.53125 C 101.363281 -209.9375 111.695312 -205.140625 121.96875 -205.140625 C 105.039062 -199.804688 96.578125 -188.546875 96.578125 -171.359375 L 96.578125 -141.5625 C 98.035156 -141.289062 100.234375 -141.15625 103.171875 -141.15625 C 115.429688 -141.15625 123.960938 -144.554688 128.765625 -151.359375 C 132.765625 -156.828125 134.765625 -165.890625 134.765625 -178.546875 C 134.765625 -181.878906 134.628906 -184.679688 134.359375 -186.953125 L 134.359375 -195.546875 C 134.359375 -214.335938 128.691406 -229.695312 117.359375 -241.625 C 106.035156 -253.5625 91.039062 -259.53125 72.375 -259.53125 C 55.976562 -259.53125 41.785156 -255.53125 29.796875 -247.53125 C 15.796875 -238.601562 8.796875 -226.335938 8.796875 -210.734375 C 8.796875 -205.941406 10.296875 -200.242188 13.296875 -193.640625 C 16.296875 -187.046875 17.796875 -183.414062 17.796875 -182.75 L 16.59375 -181.546875 C 11.394531 -182.609375 7.0625 -186.609375 3.59375 -193.546875 C 0.53125 -199.941406 -1 -206.070312 -1 -211.9375 C -1 -230.726562 8.265625 -245.523438 26.796875 -256.328125 C 42.253906 -265.253906 60.179688 -269.71875 80.578125 -269.71875 C 100.835938 -269.71875 120.5 -264.1875 139.5625 -253.125 C 152.894531 -245.53125 161.09375 -241.195312 164.15625 -240.125 C 174.414062 -236.394531 187.8125 -234.53125 204.34375 -234.53125 L 205.734375 -234.53125 L 205.734375 -227.53125 C 194.140625 -227 186.742188 -221.46875 183.546875 -210.9375 C 181.953125 -206.144531 181.15625 -196.082031 181.15625 -180.75 C 181.15625 -169.414062 182.484375 -161.019531 185.140625 -155.5625 C 188.878906 -147.957031 195.8125 -143.625 205.9375 -142.5625 Z M 205.9375 -142.5625 "/></g></g><g transform="translate(884.346453, 378.110048)"><g><path d="M 140.359375 -39.390625 C 103.835938 -38.722656 78.3125 -25.59375 63.78125 0 C 58.851562 -8.800781 49.457031 -17.460938 35.59375 -25.984375 C 21.726562 -34.515625 9.863281 -38.984375 0 -39.390625 C 5.195312 -39.523438 9.597656 -43.988281 13.203125 -52.78125 C 16.265625 -60.113281 17.796875 -66.78125 17.796875 -72.78125 L 17.796875 -109.375 C 17.796875 -127.363281 12 -139.554688 0.40625 -145.953125 C 14.925781 -145.953125 29.1875 -149.285156 43.1875 -155.953125 C 58.382812 -162.890625 69.316406 -172.285156 75.984375 -184.140625 C 80.515625 -176.015625 89.875 -167.753906 104.0625 -159.359375 C 118.257812 -150.960938 130.160156 -146.492188 139.765625 -145.953125 C 128.035156 -143.285156 122.171875 -131.757812 122.171875 -111.375 L 122.171875 -74.78125 C 122.171875 -57.1875 128.234375 -45.390625 140.359375 -39.390625 Z M 86.171875 -35.984375 L 86.171875 -109.765625 C 86.171875 -119.097656 82.773438 -127.628906 75.984375 -135.359375 C 72.515625 -139.222656 65.113281 -144.957031 53.78125 -152.5625 L 53.78125 -73.171875 C 53.78125 -58.773438 64.578125 -46.378906 86.171875 -35.984375 Z M 86.171875 -35.984375 "/></g></g><g transform="translate(1029.704545, 378.110048)"><g><path d="M 127.5625 -143.15625 C 119.5625 -139.695312 112.894531 -130.632812 107.5625 -115.96875 C 103.570312 -105.570312 100.640625 -94.109375 98.765625 -81.578125 L 98.578125 -81.578125 C 97.910156 -91.578125 94.976562 -102.90625 89.78125 -115.5625 C 83.25 -131.289062 76.113281 -139.15625 68.375 -139.15625 C 61.976562 -139.15625 58.78125 -133.828125 58.78125 -123.171875 L 58.78125 -56.578125 C 68.507812 -45.515625 77.84375 -38.851562 86.78125 -36.59375 C 91.445312 -35.519531 103.039062 -34.984375 121.5625 -34.984375 C 109.300781 -31.117188 99.039062 -26.519531 90.78125 -21.1875 C 84.25 -17.0625 75.648438 -10 64.984375 0 C 60.046875 -8.800781 50.644531 -16.832031 36.78125 -24.09375 C 22.925781 -31.351562 10.800781 -34.984375 0.40625 -34.984375 C 5.332031 -35.390625 9.992188 -40.320312 14.390625 -49.78125 C 18.390625 -58.3125 20.390625 -65.507812 20.390625 -71.375 L 20.390625 -108.375 C 20.390625 -123.832031 13.59375 -135.425781 0 -143.15625 C 14.125 -143.15625 26.722656 -156.816406 37.796875 -184.140625 C 46.191406 -161.617188 55.988281 -150.359375 67.1875 -150.359375 C 78.25 -150.359375 88.507812 -161.617188 97.96875 -184.140625 L 108.375 -160.15625 C 112.769531 -152.5625 119.164062 -146.894531 127.5625 -143.15625 Z M 127.5625 -143.15625 "/></g></g><g transform="translate(1160.466846, 378.110048)"><g><path d="M 89.171875 -117.96875 L 81.984375 -117.96875 L 81.984375 -123.765625 C 82.109375 -125.628906 82.171875 -127.628906 82.171875 -129.765625 C 82.171875 -137.628906 80.703125 -142.859375 77.765625 -145.453125 C 74.835938 -148.054688 69.242188 -149.359375 60.984375 -149.359375 L 60.984375 -74.984375 C 60.984375 -54.722656 67.179688 -41.59375 79.578125 -35.59375 C 69.316406 -29.988281 61.984375 -25.1875 57.578125 -21.1875 C 52.515625 -16.394531 47.382812 -9.332031 42.1875 0 C 36.320312 -10.257812 31.191406 -17.457031 26.796875 -21.59375 C 23.722656 -24.65625 16.320312 -29.320312 4.59375 -35.59375 C 11.925781 -39.1875 16.925781 -44.71875 19.59375 -52.1875 C 21.320312 -57.113281 22.1875 -64.710938 22.1875 -74.984375 L 22.1875 -149.359375 L 0 -149.359375 L 0 -164.15625 L 22.1875 -164.15625 L 22.1875 -198.140625 C 22.1875 -204.003906 19.191406 -209.535156 13.203125 -214.734375 C 12.535156 -215.535156 9.066406 -218.335938 2.796875 -223.140625 L 3.203125 -223.53125 C 8.535156 -224.070312 16 -225.671875 25.59375 -228.328125 C 30.65625 -230.066406 40.585938 -236.398438 55.390625 -247.328125 C 66.710938 -255.597656 77.707031 -260.460938 88.375 -261.921875 L 88.171875 -257.921875 C 70.046875 -252.191406 60.984375 -232.398438 60.984375 -198.546875 L 60.984375 -164.15625 C 71.242188 -164.15625 77.441406 -165.554688 79.578125 -168.359375 C 81.179688 -170.359375 81.984375 -176.6875 81.984375 -187.34375 L 89.171875 -187.34375 Z M 89.171875 -117.96875 "/></g></g><g transform="translate(1258.038714, 378.110048)"><g><path d="M 140.359375 -39.390625 C 103.835938 -38.722656 78.3125 -25.59375 63.78125 0 C 58.851562 -8.800781 49.457031 -17.460938 35.59375 -25.984375 C 21.726562 -34.515625 9.863281 -38.984375 0 -39.390625 C 5.195312 -39.523438 9.597656 -43.988281 13.203125 -52.78125 C 16.265625 -60.113281 17.796875 -66.78125 17.796875 -72.78125 L 17.796875 -109.375 C 17.796875 -127.363281 12 -139.554688 0.40625 -145.953125 C 14.925781 -145.953125 29.1875 -149.285156 43.1875 -155.953125 C 58.382812 -162.890625 69.316406 -172.285156 75.984375 -184.140625 C 80.515625 -176.015625 89.875 -167.753906 104.0625 -159.359375 C 118.257812 -150.960938 130.160156 -146.492188 139.765625 -145.953125 C 128.035156 -143.285156 122.171875 -131.757812 122.171875 -111.375 L 122.171875 -74.78125 C 122.171875 -57.1875 128.234375 -45.390625 140.359375 -39.390625 Z M 86.171875 -35.984375 L 86.171875 -109.765625 C 86.171875 -119.097656 82.773438 -127.628906 75.984375 -135.359375 C 72.515625 -139.222656 65.113281 -144.957031 53.78125 -152.5625 L 53.78125 -73.171875 C 53.78125 -58.773438 64.578125 -46.378906 86.171875 -35.984375 Z M 86.171875 -35.984375 "/></g></g></g></g></g></g><g transform="matrix(1, 0, 0, 1, 42, 241)"><g clip-path="url(#2a09a6b7d8)"><g fill="#000000" fill-opacity="1"><g transform="translate(1.115721, 88.885274)"><g><path d="M 17.421875 -0.53125 C 13.929688 -3.78125 10.582031 -5.40625 7.375 -5.40625 C 5.789062 -5.40625 4.660156 -4.832031 3.984375 -3.6875 L 3.984375 -5.109375 C 3.984375 -5.347656 4.242188 -6.125 4.765625 -7.4375 C 5.710938 -9.414062 6.976562 -10.84375 8.5625 -11.71875 L 8.5625 -40.5625 L 6.84375 -40.5625 C 6.40625 -40.28125 5.867188 -40.082031 5.234375 -39.96875 C 5.148438 -39.882812 4.851562 -39.785156 4.34375 -39.671875 L 4.21875 -39.5 L 4.046875 -39.5 L 2.96875 -38.84375 L 2.96875 -39.546875 C 2.96875 -39.867188 2.988281 -40.066406 3.03125 -40.140625 L 3.03125 -40.453125 L 3.15625 -40.6875 C 3.15625 -40.925781 3.191406 -41.125 3.265625 -41.28125 L 3.265625 -42.59375 C 3.304688 -42.707031 3.367188 -42.921875 3.453125 -43.234375 L 3.453125 -43.828125 L 3.328125 -44.1875 L 3.328125 -45.078125 C 3.085938 -45.796875 2.96875 -46.988281 2.96875 -48.65625 C 3.40625 -48.414062 3.789062 -48.21875 4.125 -48.0625 C 4.46875 -47.90625 4.796875 -47.765625 5.109375 -47.640625 C 5.628906 -47.484375 6.085938 -47.363281 6.484375 -47.28125 C 6.566406 -47.320312 6.984375 -47.34375 7.734375 -47.34375 L 8.5625 -47.34375 L 8.5625 -51.859375 L 8.453125 -52.046875 L 8.453125 -53.171875 C 8.410156 -53.210938 8.347656 -53.3125 8.265625 -53.46875 C 8.222656 -53.550781 8.191406 -53.617188 8.171875 -53.671875 C 8.160156 -53.734375 8.132812 -53.804688 8.09375 -53.890625 C 8.09375 -54.046875 8.050781 -54.203125 7.96875 -54.359375 L 7.96875 -54.484375 C 7.8125 -54.597656 7.734375 -54.851562 7.734375 -55.25 L 8.453125 -55.5 L 8.5625 -55.25 L 9.046875 -55.25 L 9.046875 -55.203125 C 12.765625 -55.203125 16.3125 -57.257812 19.6875 -61.375 L 19.6875 -60.078125 L 19.5625 -59.953125 C 19.488281 -59.835938 19.429688 -59.640625 19.390625 -59.359375 C 19.390625 -59.242188 19.367188 -59.09375 19.328125 -58.90625 C 19.285156 -58.726562 19.226562 -58.539062 19.15625 -58.34375 L 19.15625 -58.296875 C 19.15625 -58.015625 19.132812 -57.832031 19.09375 -57.75 C 18.8125 -56.757812 18.671875 -55.96875 18.671875 -55.375 L 18.671875 -47.34375 L 21.765625 -47.34375 L 21.953125 -47.28125 C 23.015625 -47.28125 24.179688 -47.738281 25.453125 -48.65625 L 25.453125 -47.578125 C 25.378906 -47.335938 25.34375 -47.140625 25.34375 -46.984375 C 25.144531 -46.585938 25.046875 -45.738281 25.046875 -44.4375 L 25.15625 -44.4375 C 25.15625 -43.082031 25.332031 -41.21875 25.6875 -38.84375 L 24.5625 -39.5 L 24.453125 -39.546875 L 24.390625 -39.546875 C 23.992188 -39.710938 23.585938 -39.84375 23.171875 -39.9375 C 22.753906 -40.039062 22.328125 -40.128906 21.890625 -40.203125 C 20.929688 -40.367188 19.859375 -40.488281 18.671875 -40.5625 L 18.671875 -12.90625 C 19.148438 -12.425781 19.6875 -12.1875 20.28125 -12.1875 L 20.578125 -12.140625 C 20.773438 -12.054688 20.894531 -11.972656 20.9375 -11.890625 C 21.21875 -11.691406 21.414062 -11.59375 21.53125 -11.59375 C 21.6875 -11.519531 21.785156 -11.484375 21.828125 -11.484375 C 21.867188 -11.441406 21.90625 -11.410156 21.9375 -11.390625 C 21.976562 -11.367188 22.019531 -11.335938 22.0625 -11.296875 L 21.953125 -11.296875 C 22.148438 -11.222656 22.40625 -11.046875 22.71875 -10.765625 C 23.070312 -10.484375 23.429688 -10.265625 23.796875 -10.109375 L 24.75 -11.125 L 26.765625 -8.796875 Z M 17.421875 -0.53125 "/></g></g><g transform="translate(30.855276, 88.885274)"><g><path d="M 43.421875 -42.296875 C 43.421875 -42.210938 43.410156 -42.097656 43.390625 -41.953125 C 43.367188 -41.816406 43.335938 -41.648438 43.296875 -41.453125 C 42.585938 -38.953125 41.421875 -37.226562 39.796875 -36.28125 L 39.90625 -10.296875 L 39.90625 -10.40625 C 40.46875 -8.863281 41.203125 -7.476562 42.109375 -6.25 L 42.109375 -6.359375 L 42.296875 -6.1875 L 42.296875 -6.0625 L 42.53125 -5.890625 L 41.984375 -5.171875 C 40.722656 -5.847656 39 -6.1875 36.8125 -6.1875 C 33.363281 -6.1875 31.519531 -5.609375 31.28125 -4.453125 L 32 -3.8125 L 31.40625 -3.8125 C 31.488281 -3.613281 31.742188 -3.332031 32.171875 -2.96875 C 32.367188 -2.769531 32.566406 -2.582031 32.765625 -2.40625 C 32.960938 -2.226562 33.203125 -2.019531 33.484375 -1.78125 C 36.773438 0.914062 38.421875 3.613281 38.421875 6.3125 C 38.421875 8.882812 37.210938 10.882812 34.796875 12.3125 C 33.878906 12.90625 33.203125 13.203125 32.765625 13.203125 L 32.59375 13.328125 L 32 13.328125 L 31.875 13.4375 L 31.53125 13.4375 C 29.5 13.4375 28.085938 12.46875 27.296875 10.53125 C 29.441406 9.769531 30.515625 8.640625 30.515625 7.140625 C 30.515625 5.867188 30.132812 4.835938 29.375 4.046875 C 29.21875 4.003906 29.101562 3.664062 29.03125 3.03125 L 29.078125 3.15625 C 27.816406 1.207031 27.1875 -0.832031 27.1875 -2.96875 C 27.1875 -4.519531 27.601562 -5.515625 28.4375 -5.953125 L 28.4375 -6.0625 C 29.144531 -6.78125 29.5 -7.59375 29.5 -8.5 L 29.5 -34.375 C 28.863281 -34.375 27.929688 -34.769531 26.703125 -35.5625 C 26.023438 -36 25.488281 -36.359375 25.09375 -36.640625 C 24.695312 -36.921875 24.441406 -37.140625 24.328125 -37.296875 L 24.203125 -37.40625 L 19.8125 -34.078125 L 19.8125 -13.375 C 19.925781 -13.34375 20.050781 -13.304688 20.1875 -13.265625 C 20.332031 -13.222656 20.503906 -13.160156 20.703125 -13.078125 C 20.898438 -13.003906 21.085938 -12.9375 21.265625 -12.875 C 21.441406 -12.8125 21.648438 -12.742188 21.890625 -12.671875 C 22.441406 -12.390625 22.945312 -12.117188 23.40625 -11.859375 C 23.863281 -11.609375 24.269531 -11.320312 24.625 -11 C 25.332031 -10.445312 25.988281 -9.8125 26.59375 -9.09375 L 17.421875 -0.65625 C 13.703125 -4.257812 10.296875 -6.0625 7.203125 -6.0625 L 6.71875 -6.0625 C 6.476562 -6.0625 6.28125 -6.023438 6.125 -5.953125 C 5.925781 -5.910156 5.507812 -5.75 4.875 -5.46875 C 4.519531 -5.3125 4.164062 -5.210938 3.8125 -5.171875 C 3.613281 -5.128906 3.441406 -5.097656 3.296875 -5.078125 C 3.160156 -5.066406 3.050781 -5.0625 2.96875 -5.0625 C 3.925781 -8.78125 6.03125 -11.316406 9.28125 -12.671875 L 9.28125 -54.59375 C 9.28125 -55.945312 8.644531 -57.953125 7.375 -60.609375 C 9.394531 -60.609375 11.335938 -61.003906 13.203125 -61.796875 C 15.148438 -62.585938 17.191406 -63.757812 19.328125 -65.3125 C 19.453125 -65.34375 20.164062 -65.9375 21.46875 -67.09375 L 21.40625 -66.96875 L 22.1875 -66.90625 C 22.101562 -66.707031 22.03125 -66.5 21.96875 -66.28125 C 21.914062 -66.070312 21.847656 -65.847656 21.765625 -65.609375 C 21.691406 -65.367188 21.625 -65.160156 21.5625 -64.984375 C 21.5 -64.804688 21.445312 -64.675781 21.40625 -64.59375 L 21.109375 -64 C 20.953125 -63.71875 20.8125 -63.328125 20.6875 -62.828125 C 20.570312 -62.335938 20.4375 -61.71875 20.28125 -60.96875 C 20.238281 -60.925781 20.21875 -60.863281 20.21875 -60.78125 L 20.21875 -60.671875 C 20.144531 -60.316406 20.085938 -59.988281 20.046875 -59.6875 C 20.003906 -59.382812 19.960938 -59.117188 19.921875 -58.890625 C 19.847656 -58.648438 19.8125 -58.445312 19.8125 -58.28125 C 19.8125 -58.125 19.8125 -57.988281 19.8125 -57.875 L 19.8125 -39.078125 L 32.421875 -48.71875 C 34.203125 -45.03125 36.101562 -43.1875 38.125 -43.1875 C 38.207031 -43.101562 38.40625 -43.0625 38.71875 -43.0625 C 39.550781 -43.0625 41.21875 -43.832031 43.71875 -45.375 L 43.71875 -44.015625 C 43.71875 -43.734375 43.695312 -43.554688 43.65625 -43.484375 C 43.613281 -43.398438 43.59375 -43.316406 43.59375 -43.234375 C 43.59375 -43.160156 43.570312 -43.082031 43.53125 -43 C 43.457031 -42.84375 43.421875 -42.609375 43.421875 -42.296875 Z M 43.421875 -42.296875 "/></g></g></g><g fill="#000000" fill-opacity="1"><g transform="translate(77.546375, 88.885274)"><g><path d="M 17.25 -0.359375 C 16.695312 -0.398438 16.160156 -0.46875 15.640625 -0.5625 C 15.128906 -0.664062 14.59375 -0.816406 14.03125 -1.015625 C 13.476562 -1.210938 12.960938 -1.445312 12.484375 -1.71875 C 12.015625 -2 11.539062 -2.335938 11.0625 -2.734375 C 9.039062 -4.316406 8.03125 -6.140625 8.03125 -8.203125 L 8.03125 -33.421875 C 7.039062 -33.503906 6.285156 -34.117188 5.765625 -35.265625 L 4.34375 -34.4375 L 2.96875 -36.453125 L 3.265625 -36.9375 L 3.328125 -36.875 L 3.5625 -37.0625 L 3.75 -37.171875 C 4.0625 -37.492188 4.40625 -37.8125 4.78125 -38.125 C 5.164062 -38.445312 5.554688 -38.804688 5.953125 -39.203125 C 6.390625 -39.597656 6.863281 -40.03125 7.375 -40.5 C 7.894531 -40.976562 8.488281 -41.492188 9.15625 -42.046875 C 9.945312 -42.566406 10.84375 -43.300781 11.84375 -44.25 L 12.25 -44.546875 C 12.375 -44.628906 12.484375 -44.726562 12.578125 -44.84375 C 12.679688 -44.96875 12.769531 -45.066406 12.84375 -45.140625 L 12.84375 -46.328125 C 15.582031 -42.484375 17.984375 -40.5625 20.046875 -40.5625 C 20.484375 -40.5625 21.550781 -41.019531 23.25 -41.9375 L 23.25 -40.75 C 23.132812 -40.3125 23.078125 -39.851562 23.078125 -39.375 C 22.554688 -37.863281 21.84375 -36.59375 20.9375 -35.5625 C 20.144531 -34.65625 19.253906 -33.984375 18.265625 -33.546875 L 18.265625 -12.25 C 18.265625 -11.894531 18.421875 -11.359375 18.734375 -10.640625 C 19.328125 -9.378906 20.695312 -8.75 22.84375 -8.75 C 23.632812 -8.75 24.503906 -8.945312 25.453125 -9.34375 L 25.875 -8.625 Z M 14.578125 -47.21875 L 13.734375 -47.21875 L 13.734375 -47.34375 L 12.734375 -47.34375 L 12.546875 -47.46875 C 10.015625 -47.46875 8.445312 -48.5 7.84375 -50.5625 L 6.25 -49.71875 L 4.9375 -51.921875 C 5.21875 -52.203125 5.492188 -52.441406 5.765625 -52.640625 C 6.046875 -52.835938 6.34375 -53.035156 6.65625 -53.234375 C 6.976562 -53.347656 7.265625 -53.472656 7.515625 -53.609375 C 7.773438 -53.753906 8.066406 -53.90625 8.390625 -54.0625 L 8.15625 -53.828125 C 8.269531 -53.910156 8.382812 -54 8.5 -54.09375 C 8.625 -54.195312 8.785156 -54.328125 8.984375 -54.484375 C 9.179688 -54.640625 9.359375 -54.785156 9.515625 -54.921875 C 9.671875 -55.066406 9.847656 -55.21875 10.046875 -55.375 C 10.285156 -55.53125 10.539062 -55.707031 10.8125 -55.90625 C 11.09375 -56.101562 11.394531 -56.320312 11.71875 -56.5625 C 12.03125 -56.800781 12.351562 -57.039062 12.6875 -57.28125 C 13.03125 -57.519531 13.378906 -57.773438 13.734375 -58.046875 C 15.523438 -55.515625 17.332031 -54.25 19.15625 -54.25 C 19.351562 -54.320312 19.507812 -54.378906 19.625 -54.421875 C 19.75 -54.460938 19.890625 -54.484375 20.046875 -54.484375 C 20.117188 -54.523438 20.222656 -54.5625 20.359375 -54.59375 C 20.503906 -54.632812 20.675781 -54.695312 20.875 -54.78125 L 20.765625 -54.78125 L 20.9375 -54.953125 L 21.0625 -54.953125 L 21.171875 -55.015625 L 21.234375 -55.015625 L 21.359375 -55.140625 L 22.0625 -55.140625 L 22.0625 -54.25 C 22.0625 -53.375 21.84375 -52.5 21.40625 -51.625 C 20.976562 -50.75 20.40625 -50.015625 19.6875 -49.421875 C 19.050781 -48.785156 18.257812 -48.253906 17.3125 -47.828125 C 16.875 -47.628906 16.425781 -47.476562 15.96875 -47.375 C 15.507812 -47.269531 15.046875 -47.21875 14.578125 -47.21875 Z M 14.578125 -47.21875 "/></g></g></g><g fill="#000000" fill-opacity="1"><g transform="translate(106.393742, 88.885274)"><g><path d="M 46.625 -49.1875 C 44.644531 -43.28125 40.425781 -37.15625 33.96875 -30.8125 L 44.78125 -30.984375 C 44.78125 -30.867188 44.765625 -30.75 44.734375 -30.625 L 44.734375 -30.15625 C 44.609375 -30.070312 44.546875 -29.894531 44.546875 -29.625 L 44.4375 -29.5 L 44.4375 -29.265625 L 44.25 -29.03125 L 44.25 -28.84375 L 44.078125 -28.546875 C 44.078125 -28.390625 44.054688 -28.289062 44.015625 -28.25 C 44.015625 -28.207031 44.003906 -28.175781 43.984375 -28.15625 C 43.960938 -28.144531 43.953125 -28.097656 43.953125 -28.015625 L 43.953125 -28.1875 C 43.910156 -28.03125 43.878906 -27.890625 43.859375 -27.765625 C 43.835938 -27.648438 43.8125 -27.515625 43.78125 -27.359375 L 43.59375 -26.9375 L 43.59375 -8.09375 C 43.59375 -7.96875 43.65625 -7.847656 43.78125 -7.734375 L 43.78125 -7.4375 L 43.890625 -7.25 L 43.890625 -7.375 C 43.929688 -7.289062 43.953125 -7.191406 43.953125 -7.078125 L 44.078125 -6.609375 L 43.953125 -6.78125 L 43.890625 -6.90625 C 43.890625 -6.820312 43.953125 -6.660156 44.078125 -6.421875 C 44.234375 -6.265625 44.359375 -6.097656 44.453125 -5.921875 C 44.554688 -5.742188 44.664062 -5.554688 44.78125 -5.359375 L 45.265625 -4.453125 C 44.347656 -4.453125 43.851562 -4.472656 43.78125 -4.515625 L 43.890625 -4.515625 C 43.847656 -4.597656 43.726562 -4.640625 43.53125 -4.640625 C 43.0625 -4.640625 42.632812 -4.640625 42.25 -4.640625 C 41.875 -4.640625 41.53125 -4.679688 41.21875 -4.765625 C 40.664062 -4.796875 40.171875 -4.910156 39.734375 -5.109375 C 38.503906 -5.109375 37.8125 -5.148438 37.65625 -5.234375 L 37 -5.234375 C 31.164062 -5.234375 26.367188 -3.3125 22.609375 0.53125 L 19.21875 -2.671875 C 18.894531 -2.953125 18.601562 -3.191406 18.34375 -3.390625 C 18.09375 -3.585938 17.804688 -3.742188 17.484375 -3.859375 C 17.210938 -3.941406 16.925781 -4.019531 16.625 -4.09375 C 16.320312 -4.175781 15.992188 -4.21875 15.640625 -4.21875 C 15.242188 -4.414062 14.59375 -4.515625 13.6875 -4.515625 C 10.15625 -4.515625 7.695312 -2.890625 6.3125 0.359375 L 2.96875 0.359375 C 3.5625 -2.253906 4.632812 -4.910156 6.1875 -7.609375 C 6.976562 -8.992188 7.890625 -10.398438 8.921875 -11.828125 C 9.953125 -13.265625 11.125 -14.753906 12.4375 -16.296875 L 12.84375 -16.765625 C 13 -16.847656 13.132812 -16.96875 13.25 -17.125 C 13.375 -17.289062 13.535156 -17.472656 13.734375 -17.671875 C 13.929688 -17.867188 14.128906 -18.054688 14.328125 -18.234375 C 14.523438 -18.410156 14.742188 -18.597656 14.984375 -18.796875 L 7.375 -19.15625 L 8.09375 -19.921875 L 8.03125 -19.625 C 8.738281 -20.5 9.09375 -21.410156 9.09375 -22.359375 L 9.21875 -22.65625 L 9.09375 -41.875 C 9.09375 -41.945312 9.054688 -42.003906 8.984375 -42.046875 C 8.941406 -42.046875 8.921875 -42.085938 8.921875 -42.171875 L 8.921875 -42.109375 C 8.878906 -42.148438 8.859375 -42.328125 8.859375 -42.640625 L 8.453125 -43.421875 L 8.453125 -43.53125 C 8.328125 -43.695312 8.265625 -43.9375 8.265625 -44.25 L 8.265625 -45.203125 C 8.941406 -44.566406 9.734375 -44.25 10.640625 -44.25 C 11.117188 -43.9375 12.46875 -43.78125 14.6875 -43.78125 C 14.769531 -43.695312 15.164062 -43.65625 15.875 -43.65625 C 19.445312 -43.65625 22.859375 -44.507812 26.109375 -46.21875 C 26.265625 -46.289062 26.726562 -46.664062 27.5 -47.34375 C 28.28125 -48.019531 29.363281 -49.050781 30.75 -50.4375 C 33.164062 -47.664062 35.46875 -46.28125 37.65625 -46.28125 C 39.875 -46.28125 41.675781 -47.347656 43.0625 -49.484375 L 46.15625 -49.78125 Z M 31.765625 -9.046875 L 31.765625 -22.953125 L 31.53125 -23.203125 L 25.640625 -23.203125 L 19.6875 -17.421875 C 19.40625 -17.148438 19.113281 -16.851562 18.8125 -16.53125 C 18.519531 -16.21875 18.195312 -15.863281 17.84375 -15.46875 C 17.164062 -14.675781 16.3125 -13.820312 15.28125 -12.90625 C 15.71875 -12.988281 16.144531 -13.046875 16.5625 -13.078125 C 16.976562 -13.117188 17.363281 -13.160156 17.71875 -13.203125 C 18.3125 -13.359375 18.847656 -13.4375 19.328125 -13.4375 C 23.335938 -13.4375 26.75 -11.734375 29.5625 -8.328125 L 30.03125 -8.5625 L 30.390625 -8.6875 C 30.515625 -8.6875 30.789062 -8.742188 31.21875 -8.859375 L 31.703125 -8.859375 Z M 35.5625 -38.296875 C 34.300781 -37.828125 32.914062 -37.59375 31.40625 -37.59375 C 29.257812 -37.59375 26.722656 -38.644531 23.796875 -40.75 C 23.710938 -40.707031 23.628906 -40.675781 23.546875 -40.65625 C 23.472656 -40.632812 23.394531 -40.601562 23.3125 -40.5625 L 22.90625 -40.5625 C 22.425781 -40.320312 21.988281 -40.203125 21.59375 -40.203125 L 21.59375 -26.296875 L 22.90625 -26.296875 C 23.613281 -26.691406 24.460938 -27.382812 25.453125 -28.375 C 26.046875 -28.925781 26.695312 -29.535156 27.40625 -30.203125 C 28.125 -30.878906 28.941406 -31.632812 29.859375 -32.46875 C 31.128906 -33.820312 32.25 -34.972656 33.21875 -35.921875 C 34.1875 -36.878906 34.96875 -37.671875 35.5625 -38.296875 Z M 35.5625 -38.296875 "/></g></g><g transform="translate(155.99932, 88.885274)"><g/></g></g><g fill="#000000" fill-opacity="1"><g transform="translate(197.039902, 88.885274)"><g><path d="M 17.25 -0.359375 C 16.695312 -0.398438 16.160156 -0.46875 15.640625 -0.5625 C 15.128906 -0.664062 14.59375 -0.816406 14.03125 -1.015625 C 13.476562 -1.210938 12.960938 -1.445312 12.484375 -1.71875 C 12.015625 -2 11.539062 -2.335938 11.0625 -2.734375 C 9.039062 -4.316406 8.03125 -6.140625 8.03125 -8.203125 L 8.03125 -33.421875 C 7.039062 -33.503906 6.285156 -34.117188 5.765625 -35.265625 L 4.34375 -34.4375 L 2.96875 -36.453125 L 3.265625 -36.9375 L 3.328125 -36.875 L 3.5625 -37.0625 L 3.75 -37.171875 C 4.0625 -37.492188 4.40625 -37.8125 4.78125 -38.125 C 5.164062 -38.445312 5.554688 -38.804688 5.953125 -39.203125 C 6.390625 -39.597656 6.863281 -40.03125 7.375 -40.5 C 7.894531 -40.976562 8.488281 -41.492188 9.15625 -42.046875 C 9.945312 -42.566406 10.84375 -43.300781 11.84375 -44.25 L 12.25 -44.546875 C 12.375 -44.628906 12.484375 -44.726562 12.578125 -44.84375 C 12.679688 -44.96875 12.769531 -45.066406 12.84375 -45.140625 L 12.84375 -46.328125 C 15.582031 -42.484375 17.984375 -40.5625 20.046875 -40.5625 C 20.484375 -40.5625 21.550781 -41.019531 23.25 -41.9375 L 23.25 -40.75 C 23.132812 -40.3125 23.078125 -39.851562 23.078125 -39.375 C 22.554688 -37.863281 21.84375 -36.59375 20.9375 -35.5625 C 20.144531 -34.65625 19.253906 -33.984375 18.265625 -33.546875 L 18.265625 -12.25 C 18.265625 -11.894531 18.421875 -11.359375 18.734375 -10.640625 C 19.328125 -9.378906 20.695312 -8.75 22.84375 -8.75 C 23.632812 -8.75 24.503906 -8.945312 25.453125 -9.34375 L 25.875 -8.625 Z M 14.578125 -47.21875 L 13.734375 -47.21875 L 13.734375 -47.34375 L 12.734375 -47.34375 L 12.546875 -47.46875 C 10.015625 -47.46875 8.445312 -48.5 7.84375 -50.5625 L 6.25 -49.71875 L 4.9375 -51.921875 C 5.21875 -52.203125 5.492188 -52.441406 5.765625 -52.640625 C 6.046875 -52.835938 6.34375 -53.035156 6.65625 -53.234375 C 6.976562 -53.347656 7.265625 -53.472656 7.515625 -53.609375 C 7.773438 -53.753906 8.066406 -53.90625 8.390625 -54.0625 L 8.15625 -53.828125 C 8.269531 -53.910156 8.382812 -54 8.5 -54.09375 C 8.625 -54.195312 8.785156 -54.328125 8.984375 -54.484375 C 9.179688 -54.640625 9.359375 -54.785156 9.515625 -54.921875 C 9.671875 -55.066406 9.847656 -55.21875 10.046875 -55.375 C 10.285156 -55.53125 10.539062 -55.707031 10.8125 -55.90625 C 11.09375 -56.101562 11.394531 -56.320312 11.71875 -56.5625 C 12.03125 -56.800781 12.351562 -57.039062 12.6875 -57.28125 C 13.03125 -57.519531 13.378906 -57.773438 13.734375 -58.046875 C 15.523438 -55.515625 17.332031 -54.25 19.15625 -54.25 C 19.351562 -54.320312 19.507812 -54.378906 19.625 -54.421875 C 19.75 -54.460938 19.890625 -54.484375 20.046875 -54.484375 C 20.117188 -54.523438 20.222656 -54.5625 20.359375 -54.59375 C 20.503906 -54.632812 20.675781 -54.695312 20.875 -54.78125 L 20.765625 -54.78125 L 20.9375 -54.953125 L 21.0625 -54.953125 L 21.171875 -55.015625 L 21.234375 -55.015625 L 21.359375 -55.140625 L 22.0625 -55.140625 L 22.0625 -54.25 C 22.0625 -53.375 21.84375 -52.5 21.40625 -51.625 C 20.976562 -50.75 20.40625 -50.015625 19.6875 -49.421875 C 19.050781 -48.785156 18.257812 -48.253906 17.3125 -47.828125 C 16.875 -47.628906 16.425781 -47.476562 15.96875 -47.375 C 15.507812 -47.269531 15.046875 -47.21875 14.578125 -47.21875 Z M 14.578125 -47.21875 "/></g></g></g><g fill="#000000" fill-opacity="1"><g transform="translate(225.887276, 88.885274)"><g><path d="M 46.625 -49.1875 C 44.644531 -43.28125 40.425781 -37.15625 33.96875 -30.8125 L 44.78125 -30.984375 C 44.78125 -30.867188 44.765625 -30.75 44.734375 -30.625 L 44.734375 -30.15625 C 44.609375 -30.070312 44.546875 -29.894531 44.546875 -29.625 L 44.4375 -29.5 L 44.4375 -29.265625 L 44.25 -29.03125 L 44.25 -28.84375 L 44.078125 -28.546875 C 44.078125 -28.390625 44.054688 -28.289062 44.015625 -28.25 C 44.015625 -28.207031 44.003906 -28.175781 43.984375 -28.15625 C 43.960938 -28.144531 43.953125 -28.097656 43.953125 -28.015625 L 43.953125 -28.1875 C 43.910156 -28.03125 43.878906 -27.890625 43.859375 -27.765625 C 43.835938 -27.648438 43.8125 -27.515625 43.78125 -27.359375 L 43.59375 -26.9375 L 43.59375 -8.09375 C 43.59375 -7.96875 43.65625 -7.847656 43.78125 -7.734375 L 43.78125 -7.4375 L 43.890625 -7.25 L 43.890625 -7.375 C 43.929688 -7.289062 43.953125 -7.191406 43.953125 -7.078125 L 44.078125 -6.609375 L 43.953125 -6.78125 L 43.890625 -6.90625 C 43.890625 -6.820312 43.953125 -6.660156 44.078125 -6.421875 C 44.234375 -6.265625 44.359375 -6.097656 44.453125 -5.921875 C 44.554688 -5.742188 44.664062 -5.554688 44.78125 -5.359375 L 45.265625 -4.453125 C 44.347656 -4.453125 43.851562 -4.472656 43.78125 -4.515625 L 43.890625 -4.515625 C 43.847656 -4.597656 43.726562 -4.640625 43.53125 -4.640625 C 43.0625 -4.640625 42.632812 -4.640625 42.25 -4.640625 C 41.875 -4.640625 41.53125 -4.679688 41.21875 -4.765625 C 40.664062 -4.796875 40.171875 -4.910156 39.734375 -5.109375 C 38.503906 -5.109375 37.8125 -5.148438 37.65625 -5.234375 L 37 -5.234375 C 31.164062 -5.234375 26.367188 -3.3125 22.609375 0.53125 L 19.21875 -2.671875 C 18.894531 -2.953125 18.601562 -3.191406 18.34375 -3.390625 C 18.09375 -3.585938 17.804688 -3.742188 17.484375 -3.859375 C 17.210938 -3.941406 16.925781 -4.019531 16.625 -4.09375 C 16.320312 -4.175781 15.992188 -4.21875 15.640625 -4.21875 C 15.242188 -4.414062 14.59375 -4.515625 13.6875 -4.515625 C 10.15625 -4.515625 7.695312 -2.890625 6.3125 0.359375 L 2.96875 0.359375 C 3.5625 -2.253906 4.632812 -4.910156 6.1875 -7.609375 C 6.976562 -8.992188 7.890625 -10.398438 8.921875 -11.828125 C 9.953125 -13.265625 11.125 -14.753906 12.4375 -16.296875 L 12.84375 -16.765625 C 13 -16.847656 13.132812 -16.96875 13.25 -17.125 C 13.375 -17.289062 13.535156 -17.472656 13.734375 -17.671875 C 13.929688 -17.867188 14.128906 -18.054688 14.328125 -18.234375 C 14.523438 -18.410156 14.742188 -18.597656 14.984375 -18.796875 L 7.375 -19.15625 L 8.09375 -19.921875 L 8.03125 -19.625 C 8.738281 -20.5 9.09375 -21.410156 9.09375 -22.359375 L 9.21875 -22.65625 L 9.09375 -41.875 C 9.09375 -41.945312 9.054688 -42.003906 8.984375 -42.046875 C 8.941406 -42.046875 8.921875 -42.085938 8.921875 -42.171875 L 8.921875 -42.109375 C 8.878906 -42.148438 8.859375 -42.328125 8.859375 -42.640625 L 8.453125 -43.421875 L 8.453125 -43.53125 C 8.328125 -43.695312 8.265625 -43.9375 8.265625 -44.25 L 8.265625 -45.203125 C 8.941406 -44.566406 9.734375 -44.25 10.640625 -44.25 C 11.117188 -43.9375 12.46875 -43.78125 14.6875 -43.78125 C 14.769531 -43.695312 15.164062 -43.65625 15.875 -43.65625 C 19.445312 -43.65625 22.859375 -44.507812 26.109375 -46.21875 C 26.265625 -46.289062 26.726562 -46.664062 27.5 -47.34375 C 28.28125 -48.019531 29.363281 -49.050781 30.75 -50.4375 C 33.164062 -47.664062 35.46875 -46.28125 37.65625 -46.28125 C 39.875 -46.28125 41.675781 -47.347656 43.0625 -49.484375 L 46.15625 -49.78125 Z M 31.765625 -9.046875 L 31.765625 -22.953125 L 31.53125 -23.203125 L 25.640625 -23.203125 L 19.6875 -17.421875 C 19.40625 -17.148438 19.113281 -16.851562 18.8125 -16.53125 C 18.519531 -16.21875 18.195312 -15.863281 17.84375 -15.46875 C 17.164062 -14.675781 16.3125 -13.820312 15.28125 -12.90625 C 15.71875 -12.988281 16.144531 -13.046875 16.5625 -13.078125 C 16.976562 -13.117188 17.363281 -13.160156 17.71875 -13.203125 C 18.3125 -13.359375 18.847656 -13.4375 19.328125 -13.4375 C 23.335938 -13.4375 26.75 -11.734375 29.5625 -8.328125 L 30.03125 -8.5625 L 30.390625 -8.6875 C 30.515625 -8.6875 30.789062 -8.742188 31.21875 -8.859375 L 31.703125 -8.859375 Z M 35.5625 -38.296875 C 34.300781 -37.828125 32.914062 -37.59375 31.40625 -37.59375 C 29.257812 -37.59375 26.722656 -38.644531 23.796875 -40.75 C 23.710938 -40.707031 23.628906 -40.675781 23.546875 -40.65625 C 23.472656 -40.632812 23.394531 -40.601562 23.3125 -40.5625 L 22.90625 -40.5625 C 22.425781 -40.320312 21.988281 -40.203125 21.59375 -40.203125 L 21.59375 -26.296875 L 22.90625 -26.296875 C 23.613281 -26.691406 24.460938 -27.382812 25.453125 -28.375 C 26.046875 -28.925781 26.695312 -29.535156 27.40625 -30.203125 C 28.125 -30.878906 28.941406 -31.632812 29.859375 -32.46875 C 31.128906 -33.820312 32.25 -34.972656 33.21875 -35.921875 C 34.1875 -36.878906 34.96875 -37.671875 35.5625 -38.296875 Z M 35.5625 -38.296875 "/></g></g></g></g></g><g transform="matrix(1, 0, 0, 1, 346, 221)"><g clip-path="url(#f61bf7dac9)"><g fill="#000000" fill-opacity="1"><g transform="translate(4.783853, 104.454664)"><g><path d="M 86.9375 -35.5 L 86.9375 18.546875 L 57.5 18.546875 L 53.546875 13.96875 C 50.410156 16.113281 47.070312 17.765625 43.53125 18.921875 C 41.71875 19.410156 39.945312 19.800781 38.21875 20.09375 C 36.488281 20.382812 34.753906 20.53125 33.015625 20.53125 C 30.878906 20.53125 28.84375 20.382812 26.90625 20.09375 C 24.96875 19.800781 23.128906 19.410156 21.390625 18.921875 C 17.847656 17.765625 14.921875 16.15625 12.609375 14.09375 C 11.378906 12.9375 10.289062 11.695312 9.34375 10.375 C 8.394531 9.0625 7.585938 7.625 6.921875 6.0625 C 5.609375 2.925781 4.953125 -0.863281 4.953125 -5.3125 C 4.953125 -10.507812 6.101562 -15.046875 8.40625 -18.921875 C 10.632812 -22.710938 13.851562 -25.882812 18.0625 -28.4375 C 20.113281 -29.675781 22.375 -30.769531 24.84375 -31.71875 C 27.320312 -32.664062 30.003906 -33.507812 32.890625 -34.25 C 35.773438 -34.914062 38.804688 -35.472656 41.984375 -35.921875 C 45.160156 -36.378906 48.476562 -36.734375 51.9375 -36.984375 C 51.695312 -37.890625 50.875 -38.628906 49.46875 -39.203125 C 47.988281 -39.703125 45.515625 -39.953125 42.046875 -39.953125 C 40.804688 -39.953125 39.566406 -39.890625 38.328125 -39.765625 C 37.097656 -39.640625 35.863281 -39.492188 34.625 -39.328125 C 33.3125 -39.078125 32.035156 -38.828125 30.796875 -38.578125 C 29.554688 -38.335938 28.316406 -38.050781 27.078125 -37.71875 C 25.765625 -37.382812 24.53125 -37.03125 23.375 -36.65625 C 22.21875 -36.289062 21.0625 -35.90625 19.90625 -35.5 C 17.519531 -34.59375 15.582031 -33.722656 14.09375 -32.890625 L 13.96875 -60.59375 C 15.945312 -61.414062 18.148438 -62.195312 20.578125 -62.9375 C 23.015625 -63.6875 25.632812 -64.429688 28.4375 -65.171875 C 31.320312 -65.835938 34.3125 -66.332031 37.40625 -66.65625 C 40.5 -66.988281 43.695312 -67.15625 47 -67.15625 C 50.789062 -67.15625 54.269531 -66.945312 57.4375 -66.53125 C 60.613281 -66.125 63.484375 -65.546875 66.046875 -64.796875 C 71.066406 -63.066406 75.1875 -60.84375 78.40625 -58.125 C 81.457031 -55.070312 83.644531 -51.691406 84.96875 -47.984375 C 85.625 -46.003906 86.113281 -43.984375 86.4375 -41.921875 C 86.769531 -39.859375 86.9375 -37.71875 86.9375 -35.5 Z M 51.9375 -10.765625 L 51.9375 -14.71875 C 51.03125 -14.71875 50.144531 -14.695312 49.28125 -14.65625 C 48.414062 -14.613281 47.613281 -14.550781 46.875 -14.46875 C 46.050781 -14.382812 45.304688 -14.257812 44.640625 -14.09375 C 43.984375 -13.925781 43.367188 -13.765625 42.796875 -13.609375 C 41.472656 -13.109375 40.523438 -12.488281 39.953125 -11.75 C 39.203125 -11.007812 38.828125 -10.0625 38.828125 -8.90625 C 38.828125 -7.332031 39.363281 -6.257812 40.4375 -5.6875 C 41.425781 -4.945312 42.785156 -4.578125 44.515625 -4.578125 C 46.085938 -4.578125 47.570312 -4.988281 48.96875 -5.8125 C 50.375 -6.550781 51.242188 -7.5 51.578125 -8.65625 C 51.816406 -9.394531 51.9375 -10.097656 51.9375 -10.765625 Z M -3.703125 -102.640625 L -3.703125 28.4375 L 96.828125 28.4375 L 96.828125 -102.640625 Z M -3.703125 -102.640625 "/></g></g></g><g fill="#000000" fill-opacity="1"><g transform="translate(97.905058, 104.454664)"><g><path d="M 6.1875 -65.421875 L 34.015625 -65.421875 L 38.21875 -59.859375 C 39.039062 -60.597656 39.882812 -61.296875 40.75 -61.953125 C 41.613281 -62.617188 42.5 -63.195312 43.40625 -63.6875 C 44.3125 -64.101562 45.21875 -64.492188 46.125 -64.859375 C 47.03125 -65.234375 47.898438 -65.585938 48.734375 -65.921875 C 49.640625 -66.160156 50.484375 -66.363281 51.265625 -66.53125 C 52.046875 -66.695312 52.804688 -66.820312 53.546875 -66.90625 C 54.285156 -66.988281 54.984375 -67.050781 55.640625 -67.09375 C 56.304688 -67.132812 56.925781 -67.15625 57.5 -67.15625 C 61.457031 -67.15625 65.296875 -66.535156 69.015625 -65.296875 C 72.640625 -63.898438 75.769531 -61.796875 78.40625 -58.984375 C 81.039062 -56.023438 83.144531 -52.273438 84.71875 -47.734375 C 85.457031 -45.429688 86.03125 -42.851562 86.4375 -40 C 86.851562 -37.15625 87.0625 -34.046875 87.0625 -30.671875 L 87.0625 18.546875 L 53.796875 18.546875 L 53.796875 -28.328125 C 53.796875 -30.878906 53.300781 -33.019531 52.3125 -34.75 C 51.320312 -36.394531 49.671875 -37.21875 47.359375 -37.21875 C 46.046875 -37.21875 44.6875 -36.804688 43.28125 -35.984375 C 41.96875 -35.160156 40.691406 -33.554688 39.453125 -31.171875 L 39.453125 18.546875 L 6.1875 18.546875 Z M -3.703125 -102.640625 L -3.703125 28.4375 L 96.953125 28.4375 L 96.953125 -102.640625 Z M -3.703125 -102.640625 "/></g></g></g><g fill="#000000" fill-opacity="1"><g transform="translate(191.149915, 104.454664)"><g><path d="M 90.40625 -92.75 L 90.40625 18.546875 L 66.046875 18.546875 L 62.578125 12.984375 C 60.023438 15.128906 57.265625 16.863281 54.296875 18.1875 C 52.722656 18.757812 51.03125 19.226562 49.21875 19.59375 C 47.40625 19.96875 45.46875 20.15625 43.40625 20.15625 C 40.9375 20.15625 38.523438 19.90625 36.171875 19.40625 C 33.828125 18.914062 31.539062 18.257812 29.3125 17.4375 C 24.53125 15.457031 20.40625 12.65625 16.9375 9.03125 C 13.3125 5.238281 10.425781 0.535156 8.28125 -5.078125 C 6.0625 -10.679688 4.953125 -17.234375 4.953125 -24.734375 C 4.953125 -31.160156 5.816406 -37.015625 7.546875 -42.296875 C 8.453125 -44.929688 9.5 -47.363281 10.6875 -49.59375 C 11.882812 -51.820312 13.269531 -53.84375 14.84375 -55.65625 C 17.976562 -59.28125 21.6875 -62.125 25.96875 -64.1875 C 30.175781 -66.164062 34.875 -67.15625 40.0625 -67.15625 C 43.445312 -67.15625 46.582031 -66.828125 49.46875 -66.171875 C 50.789062 -65.835938 52.066406 -65.421875 53.296875 -64.921875 C 54.535156 -64.429688 55.773438 -63.894531 57.015625 -63.3125 L 57.015625 -92.75 Z M 48.734375 -9.40625 C 50.703125 -9.40625 52.304688 -9.859375 53.546875 -10.765625 C 54.867188 -11.585938 56.023438 -12.65625 57.015625 -13.96875 L 57.015625 -33.265625 C 55.691406 -34.910156 54.332031 -36.148438 52.9375 -36.984375 C 51.445312 -37.722656 50.046875 -38.09375 48.734375 -38.09375 C 45.179688 -38.09375 42.582031 -36.734375 40.9375 -34.015625 C 40.113281 -32.691406 39.492188 -31.164062 39.078125 -29.4375 C 38.671875 -27.707031 38.46875 -25.851562 38.46875 -23.875 C 38.46875 -19.164062 39.375 -15.617188 41.1875 -13.234375 C 42.914062 -10.679688 45.429688 -9.40625 48.734375 -9.40625 Z M -3.703125 -102.640625 L -3.703125 28.4375 L 100.296875 28.4375 L 100.296875 -102.640625 Z M -3.703125 -102.640625 "/></g></g></g><g fill="#000000" fill-opacity="1"><g transform="translate(287.73379, 104.454664)"><g><path d="M 40.5625 18.546875 L 7.296875 18.546875 L 7.296875 -58.875 L 40.5625 -58.875 Z M 24.109375 -98.078125 C 25.347656 -98.078125 26.523438 -97.972656 27.640625 -97.765625 C 28.753906 -97.554688 29.847656 -97.242188 30.921875 -96.828125 C 32.984375 -95.921875 34.710938 -94.769531 36.109375 -93.375 C 37.515625 -91.800781 38.585938 -90.066406 39.328125 -88.171875 C 40.066406 -86.191406 40.4375 -84.050781 40.4375 -81.75 C 40.4375 -79.519531 40.066406 -77.414062 39.328125 -75.4375 C 38.421875 -73.375 37.304688 -71.6875 35.984375 -70.375 C 34.335938 -68.71875 32.609375 -67.5625 30.796875 -66.90625 C 29.722656 -66.414062 28.609375 -66.066406 27.453125 -65.859375 C 26.296875 -65.648438 25.101562 -65.546875 23.875 -65.546875 C 22.632812 -65.546875 21.457031 -65.648438 20.34375 -65.859375 C 19.226562 -66.066406 18.175781 -66.414062 17.1875 -66.90625 C 15.289062 -67.644531 13.601562 -68.800781 12.125 -70.375 C 10.632812 -71.6875 9.519531 -73.375 8.78125 -75.4375 C 8.039062 -77.414062 7.671875 -79.519531 7.671875 -81.75 C 7.671875 -84.132812 8.082031 -86.273438 8.90625 -88.171875 C 9.726562 -90.316406 10.800781 -92.050781 12.125 -93.375 C 13.4375 -94.769531 15.164062 -95.921875 17.3125 -96.828125 C 18.300781 -97.242188 19.375 -97.554688 20.53125 -97.765625 C 21.6875 -97.972656 22.878906 -98.078125 24.109375 -98.078125 Z M -3.703125 -102.640625 L -3.703125 28.4375 L 51.6875 28.4375 L 51.6875 -102.640625 Z M -3.703125 -102.640625 "/></g></g></g><g fill="#000000" fill-opacity="1"><g transform="translate(335.716535, 104.454664)"><g><path d="M 39.453125 -92.75 L 39.453125 -45.515625 L 55.65625 -65.421875 L 94.859375 -65.421875 L 64.921875 -30.046875 L 96.09375 18.671875 L 56.765625 18.671875 L 42.546875 -3.703125 L 39.453125 -0.125 L 39.453125 18.546875 L 6.1875 18.546875 L 6.1875 -92.75 Z M -3.703125 -102.640625 L -3.703125 28.4375 L 101.40625 28.4375 L 101.40625 -102.640625 Z M -3.703125 -102.640625 "/></g></g></g><g fill="#000000" fill-opacity="1"><g transform="translate(433.413409, 104.454664)"><g><path d="M 86.9375 -35.5 L 86.9375 18.546875 L 57.5 18.546875 L 53.546875 13.96875 C 50.410156 16.113281 47.070312 17.765625 43.53125 18.921875 C 41.71875 19.410156 39.945312 19.800781 38.21875 20.09375 C 36.488281 20.382812 34.753906 20.53125 33.015625 20.53125 C 30.878906 20.53125 28.84375 20.382812 26.90625 20.09375 C 24.96875 19.800781 23.128906 19.410156 21.390625 18.921875 C 17.847656 17.765625 14.921875 16.15625 12.609375 14.09375 C 11.378906 12.9375 10.289062 11.695312 9.34375 10.375 C 8.394531 9.0625 7.585938 7.625 6.921875 6.0625 C 5.609375 2.925781 4.953125 -0.863281 4.953125 -5.3125 C 4.953125 -10.507812 6.101562 -15.046875 8.40625 -18.921875 C 10.632812 -22.710938 13.851562 -25.882812 18.0625 -28.4375 C 20.113281 -29.675781 22.375 -30.769531 24.84375 -31.71875 C 27.320312 -32.664062 30.003906 -33.507812 32.890625 -34.25 C 35.773438 -34.914062 38.804688 -35.472656 41.984375 -35.921875 C 45.160156 -36.378906 48.476562 -36.734375 51.9375 -36.984375 C 51.695312 -37.890625 50.875 -38.628906 49.46875 -39.203125 C 47.988281 -39.703125 45.515625 -39.953125 42.046875 -39.953125 C 40.804688 -39.953125 39.566406 -39.890625 38.328125 -39.765625 C 37.097656 -39.640625 35.863281 -39.492188 34.625 -39.328125 C 33.3125 -39.078125 32.035156 -38.828125 30.796875 -38.578125 C 29.554688 -38.335938 28.316406 -38.050781 27.078125 -37.71875 C 25.765625 -37.382812 24.53125 -37.03125 23.375 -36.65625 C 22.21875 -36.289062 21.0625 -35.90625 19.90625 -35.5 C 17.519531 -34.59375 15.582031 -33.722656 14.09375 -32.890625 L 13.96875 -60.59375 C 15.945312 -61.414062 18.148438 -62.195312 20.578125 -62.9375 C 23.015625 -63.6875 25.632812 -64.429688 28.4375 -65.171875 C 31.320312 -65.835938 34.3125 -66.332031 37.40625 -66.65625 C 40.5 -66.988281 43.695312 -67.15625 47 -67.15625 C 50.789062 -67.15625 54.269531 -66.945312 57.4375 -66.53125 C 60.613281 -66.125 63.484375 -65.546875 66.046875 -64.796875 C 71.066406 -63.066406 75.1875 -60.84375 78.40625 -58.125 C 81.457031 -55.070312 83.644531 -51.691406 84.96875 -47.984375 C 85.625 -46.003906 86.113281 -43.984375 86.4375 -41.921875 C 86.769531 -39.859375 86.9375 -37.71875 86.9375 -35.5 Z M 51.9375 -10.765625 L 51.9375 -14.71875 C 51.03125 -14.71875 50.144531 -14.695312 49.28125 -14.65625 C 48.414062 -14.613281 47.613281 -14.550781 46.875 -14.46875 C 46.050781 -14.382812 45.304688 -14.257812 44.640625 -14.09375 C 43.984375 -13.925781 43.367188 -13.765625 42.796875 -13.609375 C 41.472656 -13.109375 40.523438 -12.488281 39.953125 -11.75 C 39.203125 -11.007812 38.828125 -10.0625 38.828125 -8.90625 C 38.828125 -7.332031 39.363281 -6.257812 40.4375 -5.6875 C 41.425781 -4.945312 42.785156 -4.578125 44.515625 -4.578125 C 46.085938 -4.578125 47.570312 -4.988281 48.96875 -5.8125 C 50.375 -6.550781 51.242188 -7.5 51.578125 -8.65625 C 51.816406 -9.394531 51.9375 -10.097656 51.9375 -10.765625 Z M -3.703125 -102.640625 L -3.703125 28.4375 L 96.828125 28.4375 L 96.828125 -102.640625 Z M -3.703125 -102.640625 "/></g></g></g><g fill="#000000" fill-opacity="1"><g transform="translate(526.534613, 104.454664)"><g><path d="M 73.09375 -13.734375 L 73.09375 15.703125 C 71.363281 16.523438 69.609375 17.203125 67.828125 17.734375 C 66.054688 18.273438 64.265625 18.753906 62.453125 19.171875 C 60.640625 19.492188 58.703125 19.738281 56.640625 19.90625 C 54.578125 20.070312 52.351562 20.15625 49.96875 20.15625 C 46.664062 20.15625 43.46875 19.90625 40.375 19.40625 C 37.28125 18.914062 34.375 18.257812 31.65625 17.4375 C 26.132812 15.457031 21.394531 12.738281 17.4375 9.28125 C 13.394531 5.488281 10.34375 0.992188 8.28125 -4.203125 C 6.0625 -9.398438 4.953125 -15.539062 4.953125 -22.625 C 4.953125 -26.007812 5.175781 -29.25 5.625 -32.34375 C 6.082031 -35.4375 6.804688 -38.382812 7.796875 -41.1875 C 9.609375 -46.457031 12.453125 -51.113281 16.328125 -55.15625 C 20.035156 -58.863281 24.773438 -61.789062 30.546875 -63.9375 C 36.234375 -65.914062 42.867188 -66.90625 50.453125 -66.90625 C 53.503906 -66.90625 56.765625 -66.660156 60.234375 -66.171875 C 63.359375 -65.585938 67.109375 -64.515625 71.484375 -62.953125 L 71.484375 -33.390625 C 70.828125 -33.640625 70.1875 -33.90625 69.5625 -34.1875 C 68.945312 -34.476562 68.3125 -34.789062 67.65625 -35.125 C 66.988281 -35.375 66.304688 -35.597656 65.609375 -35.796875 C 64.910156 -36.003906 64.1875 -36.234375 63.4375 -36.484375 C 62.695312 -36.648438 61.9375 -36.832031 61.15625 -37.03125 C 60.375 -37.238281 59.53125 -37.382812 58.625 -37.46875 C 56.8125 -37.71875 54.707031 -37.84375 52.3125 -37.84375 C 48.519531 -37.84375 45.265625 -36.6875 42.546875 -34.375 C 39.898438 -31.988281 38.578125 -28.363281 38.578125 -23.5 C 38.578125 -20.613281 39.035156 -18.382812 39.953125 -16.8125 C 40.691406 -15 41.800781 -13.515625 43.28125 -12.359375 C 44.519531 -11.210938 46.128906 -10.390625 48.109375 -9.890625 C 49.835938 -9.398438 51.691406 -9.15625 53.671875 -9.15625 C 57.378906 -9.15625 60.71875 -9.566406 63.6875 -10.390625 C 66.820312 -11.210938 69.957031 -12.328125 73.09375 -13.734375 Z M -3.703125 -102.640625 L -3.703125 28.4375 L 81.625 28.4375 L 81.625 -102.640625 Z M -3.703125 -102.640625 "/></g></g></g><g fill="#000000" fill-opacity="1"><g transform="translate(604.444752, 104.454664)"><g><path d="M 86.9375 -35.5 L 86.9375 18.546875 L 57.5 18.546875 L 53.546875 13.96875 C 50.410156 16.113281 47.070312 17.765625 43.53125 18.921875 C 41.71875 19.410156 39.945312 19.800781 38.21875 20.09375 C 36.488281 20.382812 34.753906 20.53125 33.015625 20.53125 C 30.878906 20.53125 28.84375 20.382812 26.90625 20.09375 C 24.96875 19.800781 23.128906 19.410156 21.390625 18.921875 C 17.847656 17.765625 14.921875 16.15625 12.609375 14.09375 C 11.378906 12.9375 10.289062 11.695312 9.34375 10.375 C 8.394531 9.0625 7.585938 7.625 6.921875 6.0625 C 5.609375 2.925781 4.953125 -0.863281 4.953125 -5.3125 C 4.953125 -10.507812 6.101562 -15.046875 8.40625 -18.921875 C 10.632812 -22.710938 13.851562 -25.882812 18.0625 -28.4375 C 20.113281 -29.675781 22.375 -30.769531 24.84375 -31.71875 C 27.320312 -32.664062 30.003906 -33.507812 32.890625 -34.25 C 35.773438 -34.914062 38.804688 -35.472656 41.984375 -35.921875 C 45.160156 -36.378906 48.476562 -36.734375 51.9375 -36.984375 C 51.695312 -37.890625 50.875 -38.628906 49.46875 -39.203125 C 47.988281 -39.703125 45.515625 -39.953125 42.046875 -39.953125 C 40.804688 -39.953125 39.566406 -39.890625 38.328125 -39.765625 C 37.097656 -39.640625 35.863281 -39.492188 34.625 -39.328125 C 33.3125 -39.078125 32.035156 -38.828125 30.796875 -38.578125 C 29.554688 -38.335938 28.316406 -38.050781 27.078125 -37.71875 C 25.765625 -37.382812 24.53125 -37.03125 23.375 -36.65625 C 22.21875 -36.289062 21.0625 -35.90625 19.90625 -35.5 C 17.519531 -34.59375 15.582031 -33.722656 14.09375 -32.890625 L 13.96875 -60.59375 C 15.945312 -61.414062 18.148438 -62.195312 20.578125 -62.9375 C 23.015625 -63.6875 25.632812 -64.429688 28.4375 -65.171875 C 31.320312 -65.835938 34.3125 -66.332031 37.40625 -66.65625 C 40.5 -66.988281 43.695312 -67.15625 47 -67.15625 C 50.789062 -67.15625 54.269531 -66.945312 57.4375 -66.53125 C 60.613281 -66.125 63.484375 -65.546875 66.046875 -64.796875 C 71.066406 -63.066406 75.1875 -60.84375 78.40625 -58.125 C 81.457031 -55.070312 83.644531 -51.691406 84.96875 -47.984375 C 85.625 -46.003906 86.113281 -43.984375 86.4375 -41.921875 C 86.769531 -39.859375 86.9375 -37.71875 86.9375 -35.5 Z M 51.9375 -10.765625 L 51.9375 -14.71875 C 51.03125 -14.71875 50.144531 -14.695312 49.28125 -14.65625 C 48.414062 -14.613281 47.613281 -14.550781 46.875 -14.46875 C 46.050781 -14.382812 45.304688 -14.257812 44.640625 -14.09375 C 43.984375 -13.925781 43.367188 -13.765625 42.796875 -13.609375 C 41.472656 -13.109375 40.523438 -12.488281 39.953125 -11.75 C 39.203125 -11.007812 38.828125 -10.0625 38.828125 -8.90625 C 38.828125 -7.332031 39.363281 -6.257812 40.4375 -5.6875 C 41.425781 -4.945312 42.785156 -4.578125 44.515625 -4.578125 C 46.085938 -4.578125 47.570312 -4.988281 48.96875 -5.8125 C 50.375 -6.550781 51.242188 -7.5 51.578125 -8.65625 C 51.816406 -9.394531 51.9375 -10.097656 51.9375 -10.765625 Z M -3.703125 -102.640625 L -3.703125 28.4375 L 96.828125 28.4375 L 96.828125 -102.640625 Z M -3.703125 -102.640625 "/></g></g></g><g fill="#000000" fill-opacity="1"><g transform="translate(697.565956, 104.454664)"><g><path d="M 3.703125 -65.421875 L 15.828125 -65.421875 L 15.828125 -86.5625 L 49.09375 -86.5625 L 49.09375 -65.421875 L 66.046875 -65.421875 L 66.046875 -36.984375 L 49.09375 -36.984375 L 49.09375 -16.578125 C 49.09375 -14.097656 49.585938 -12.363281 50.578125 -11.375 C 51.566406 -10.21875 53.175781 -9.5625 55.40625 -9.40625 C 57.46875 -9.15625 59.609375 -9.234375 61.828125 -9.640625 C 62.816406 -9.804688 63.828125 -9.972656 64.859375 -10.140625 C 65.890625 -10.304688 66.941406 -10.554688 68.015625 -10.890625 L 68.015625 17.4375 C 66.859375 17.851562 65.617188 18.242188 64.296875 18.609375 C 62.984375 18.984375 61.585938 19.296875 60.109375 19.546875 C 58.535156 19.703125 56.882812 19.84375 55.15625 19.96875 C 53.425781 20.09375 51.570312 20.15625 49.59375 20.15625 C 46.539062 20.15625 43.734375 19.96875 41.171875 19.59375 C 38.617188 19.226562 36.273438 18.71875 34.140625 18.0625 C 29.765625 16.570312 26.257812 14.507812 23.625 11.875 C 20.90625 9.15625 18.925781 5.859375 17.6875 1.984375 C 16.445312 -1.972656 15.828125 -6.507812 15.828125 -11.625 L 15.828125 -36.984375 L 3.703125 -36.984375 Z M -3.703125 -102.640625 L -3.703125 28.4375 L 74.828125 28.4375 L 74.828125 -102.640625 Z M -3.703125 -102.640625 "/></g></g></g><g fill="#000000" fill-opacity="1"><g transform="translate(768.67448, 104.454664)"><g><path d="M 3.703125 -65.421875 L 39.703125 -65.421875 L 50.328125 -30.171875 L 60.359375 -65.421875 L 95.71875 -65.421875 L 64.3125 18.546875 L 34.375 18.546875 Z M -3.703125 -102.640625 L -3.703125 28.4375 L 103.140625 28.4375 L 103.140625 -102.640625 Z M -3.703125 -102.640625 "/></g></g></g><g fill="#000000" fill-opacity="1"><g transform="translate(868.102685, 104.454664)"><g><path d="M 6.1875 -65.421875 L 34.015625 -65.421875 L 37.59375 -60.71875 C 39.988281 -63.03125 42.789062 -64.679688 46 -65.671875 C 48.96875 -66.578125 51.816406 -67.070312 54.546875 -67.15625 C 55.453125 -67.15625 56.316406 -67.15625 57.140625 -67.15625 C 57.960938 -67.15625 58.785156 -67.070312 59.609375 -66.90625 C 60.347656 -66.820312 61.109375 -66.675781 61.890625 -66.46875 C 62.679688 -66.269531 63.488281 -66.085938 64.3125 -65.921875 L 64.3125 -33.390625 C 63.488281 -33.554688 62.660156 -33.722656 61.828125 -33.890625 C 61.003906 -34.054688 60.140625 -34.175781 59.234375 -34.25 C 57.253906 -34.5 55.316406 -34.625 53.421875 -34.625 C 50.867188 -34.625 48.394531 -34.378906 46 -33.890625 C 43.53125 -33.304688 41.347656 -32.234375 39.453125 -30.671875 L 39.453125 18.546875 L 6.1875 18.546875 Z M -3.703125 -102.640625 L -3.703125 28.4375 L 72.34375 28.4375 L 72.34375 -102.640625 Z M -3.703125 -102.640625 "/></g></g></g><g fill="#000000" fill-opacity="1"><g transform="translate(936.737786, 104.454664)"><g><path d="M 11.875 -54.546875 C 12.695312 -55.035156 13.457031 -55.609375 14.15625 -56.265625 C 14.863281 -56.929688 15.503906 -57.632812 16.078125 -58.375 C 17.066406 -59.695312 17.972656 -61.304688 18.796875 -63.203125 C 14.835938 -63.941406 11.742188 -65.796875 9.515625 -68.765625 C 7.296875 -71.648438 6.1875 -75.070312 6.1875 -79.03125 C 6.1875 -81.414062 6.597656 -83.554688 7.421875 -85.453125 C 8.242188 -87.597656 9.316406 -89.332031 10.640625 -90.65625 C 11.953125 -92.050781 13.679688 -93.203125 15.828125 -94.109375 C 16.816406 -94.523438 17.890625 -94.832031 19.046875 -95.03125 C 20.203125 -95.238281 21.394531 -95.34375 22.625 -95.34375 C 23.863281 -95.34375 25.039062 -95.238281 26.15625 -95.03125 C 27.269531 -94.832031 28.363281 -94.523438 29.4375 -94.109375 C 31.5 -93.203125 33.226562 -92.050781 34.625 -90.65625 C 36.03125 -89.082031 37.101562 -87.347656 37.84375 -85.453125 C 38.582031 -83.472656 38.953125 -81.332031 38.953125 -79.03125 C 38.953125 -75.476562 38.457031 -72.015625 37.46875 -68.640625 C 36.476562 -65.085938 34.992188 -61.910156 33.015625 -59.109375 C 31.117188 -56.222656 28.6875 -53.628906 25.71875 -51.328125 C 24.238281 -50.253906 22.691406 -49.285156 21.078125 -48.421875 C 19.472656 -47.554688 17.722656 -46.875 15.828125 -46.375 C 14.671875 -45.882812 13.351562 -45.71875 11.875 -45.875 C 10.46875 -45.875 9.4375 -46.617188 8.78125 -48.109375 C 8.363281 -48.847656 8.28125 -49.546875 8.53125 -50.203125 C 8.53125 -50.867188 8.78125 -51.488281 9.28125 -52.0625 C 9.4375 -52.3125 9.617188 -52.554688 9.828125 -52.796875 C 10.035156 -53.046875 10.265625 -53.296875 10.515625 -53.546875 C 10.765625 -53.710938 10.988281 -53.898438 11.1875 -54.109375 C 11.394531 -54.316406 11.625 -54.460938 11.875 -54.546875 Z M -3.703125 -102.640625 L -3.703125 28.4375 L 48.84375 28.4375 L 48.84375 -102.640625 Z M -3.703125 -102.640625 "/></g></g></g><g fill="#000000" fill-opacity="1"><g transform="translate(981.876187, 104.454664)"><g><path d="M 5.1875 13.484375 L 5.1875 -13.109375 C 6.09375 -12.609375 7.144531 -12.128906 8.34375 -11.671875 C 9.539062 -11.222656 10.878906 -10.796875 12.359375 -10.390625 C 15.171875 -9.484375 18.222656 -8.695312 21.515625 -8.03125 C 24.648438 -7.289062 27.660156 -6.796875 30.546875 -6.546875 C 31.953125 -6.304688 33.207031 -6.144531 34.3125 -6.0625 C 35.425781 -5.976562 36.394531 -5.9375 37.21875 -5.9375 C 37.882812 -5.9375 38.503906 -5.957031 39.078125 -6 C 39.660156 -6.039062 40.15625 -6.101562 40.5625 -6.1875 C 41.382812 -6.351562 41.835938 -6.765625 41.921875 -7.421875 C 41.921875 -8.078125 41.222656 -8.695312 39.828125 -9.28125 L 33.015625 -11.5 C 28.066406 -12.988281 23.863281 -14.84375 20.40625 -17.0625 C 16.78125 -19.039062 13.851562 -21.351562 11.625 -24 C 9.226562 -26.550781 7.535156 -29.144531 6.546875 -31.78125 C 5.484375 -34.414062 4.953125 -37.175781 4.953125 -40.0625 C 4.953125 -49.46875 8.25 -56.3125 14.84375 -60.59375 C 21.519531 -64.882812 30.671875 -67.03125 42.296875 -67.03125 C 44.929688 -67.03125 47.484375 -66.90625 49.953125 -66.65625 C 52.429688 -66.40625 54.910156 -66.078125 57.390625 -65.671875 C 59.773438 -65.171875 62.0625 -64.570312 64.25 -63.875 C 66.4375 -63.175781 68.554688 -62.375 70.609375 -61.46875 L 70.609375 -35.5 C 69.867188 -35.820312 69.023438 -36.148438 68.078125 -36.484375 C 67.128906 -36.816406 66.078125 -37.144531 64.921875 -37.46875 C 63.773438 -37.800781 62.582031 -38.109375 61.34375 -38.390625 C 60.101562 -38.679688 58.863281 -38.953125 57.625 -39.203125 C 56.3125 -39.453125 55.015625 -39.675781 53.734375 -39.875 C 52.453125 -40.082031 51.195312 -40.269531 49.96875 -40.4375 C 47.40625 -40.6875 45.09375 -40.8125 43.03125 -40.8125 C 42.539062 -40.8125 42.109375 -40.789062 41.734375 -40.75 C 41.367188 -40.707031 40.976562 -40.644531 40.5625 -40.5625 C 39.820312 -40.3125 39.453125 -40.023438 39.453125 -39.703125 C 39.453125 -39.367188 39.617188 -39.078125 39.953125 -38.828125 C 40.191406 -38.421875 41.140625 -37.96875 42.796875 -37.46875 L 54.421875 -33.890625 C 58.378906 -32.484375 61.921875 -30.75 65.046875 -28.6875 C 66.703125 -27.613281 68.1875 -26.375 69.5 -24.96875 C 70.820312 -23.570312 72.019531 -22.050781 73.09375 -20.40625 C 75.070312 -17.101562 76.179688 -12.941406 76.421875 -7.921875 C 76.753906 1.148438 73.707031 8.117188 67.28125 12.984375 C 63.976562 15.296875 59.8125 17.066406 54.78125 18.296875 C 49.757812 19.535156 43.828125 20.15625 36.984375 20.15625 C 34.171875 20.15625 31.363281 20.007812 28.5625 19.71875 C 25.757812 19.4375 23.039062 19.046875 20.40625 18.546875 C 15.125 17.472656 10.050781 15.785156 5.1875 13.484375 Z M -3.703125 -102.640625 L -3.703125 28.4375 L 85.09375 28.4375 L 85.09375 -102.640625 Z M -3.703125 -102.640625 "/></g></g></g></g></g><g transform="matrix(1, 0, 0, 1, 829, 49)"><g clip-path="url(#64de2ecba1)"><g clip-path="url(#5e9f7f3477)"><g fill="#000000" fill-opacity="1"><g transform="translate(0.681605, 141.453125)"><g><path d="M 124.84375 -88.484375 C 118.394531 -86.753906 113.910156 -80.925781 111.390625 -71 L 103.28125 -38.578125 C 102.539062 -35.472656 102.171875 -32.742188 102.171875 -30.390625 C 102.171875 -23.359375 105.425781 -19.210938 111.9375 -17.953125 L 111.9375 -15.265625 C 102.226562 -15.429688 94.75 -10.34375 89.5 0 C 88.238281 -0.570312 84.695312 -3.535156 78.875 -8.890625 C 74.207031 -13.191406 70.535156 -15.316406 67.859375 -15.265625 L 67.859375 -17.953125 C 72.421875 -18.628906 74.703125 -21.539062 74.703125 -26.6875 C 74.703125 -28 74.570312 -29.363281 74.3125 -30.78125 C 71.269531 -48.09375 68.117188 -64.570312 64.859375 -80.21875 C 64.960938 -79.800781 65.015625 -79.144531 65.015625 -78.25 C 65.015625 -72.789062 63.46875 -64.390625 60.375 -53.046875 C 57.28125 -41.710938 55.734375 -33.210938 55.734375 -27.546875 C 55.734375 -22.773438 58.09375 -19.578125 62.8125 -17.953125 L 62.8125 -15.265625 C 55.675781 -12.960938 50.113281 -7.875 46.125 0 C 44.03125 -1.15625 41.59375 -3.203125 38.8125 -6.140625 C 35.65625 -9.710938 33.425781 -11.914062 32.125 -12.75 C 29.28125 -14.75 26.128906 -15.585938 22.671875 -15.265625 L 22.671875 -17.953125 L 23.609375 -17.953125 C 29.597656 -17.953125 32.59375 -20.734375 32.59375 -26.296875 C 32.59375 -29.753906 32.066406 -33.742188 31.015625 -38.265625 C 29.960938 -42.242188 28.910156 -46.226562 27.859375 -50.21875 C 27.441406 -50.269531 26.757812 -50.296875 25.8125 -50.296875 C 22.457031 -50.296875 20.332031 -49.5625 19.4375 -48.09375 C 18.757812 -46.988281 18.421875 -44.707031 18.421875 -41.25 L 15.109375 -41.25 L 15.109375 -66.28125 L 18.421875 -66.28125 L 18.421875 -63.453125 C 18.421875 -61.554688 18.773438 -60.289062 19.484375 -59.65625 C 20.191406 -59.03125 21.4375 -58.71875 23.21875 -58.71875 L 26.0625 -58.71875 L 20.3125 -85.484375 C 19.726562 -88.054688 18.492188 -90.679688 16.609375 -93.359375 C 14.453125 -96.554688 12.222656 -98.15625 9.921875 -98.15625 C 8.398438 -98.15625 6.914062 -97.378906 5.46875 -95.828125 C 4.03125 -94.285156 3.3125 -92.703125 3.3125 -91.078125 C 3.3125 -89.453125 4.03125 -87.957031 5.46875 -86.59375 C 6.914062 -85.226562 7.640625 -84.441406 7.640625 -84.234375 C 7.640625 -83.703125 7.242188 -83.4375 6.453125 -83.4375 C 4.617188 -83.4375 3.082031 -84.238281 1.84375 -85.84375 C 0.613281 -87.445312 0 -89.269531 0 -91.3125 C 0 -95.664062 1.96875 -99.15625 5.90625 -101.78125 C 9.363281 -103.988281 13.429688 -105.09375 18.109375 -105.09375 C 21.890625 -105.09375 25.035156 -103.910156 27.546875 -101.546875 C 29.910156 -99.285156 32.378906 -96.976562 34.953125 -94.625 C 38.734375 -92.257812 43.925781 -91.15625 50.53125 -91.3125 L 50.53125 -88.484375 C 44.8125 -88.484375 41.953125 -85.070312 41.953125 -78.25 C 41.953125 -76.570312 42.164062 -74.601562 42.59375 -72.34375 C 43.320312 -68.144531 46.441406 -53.347656 51.953125 -27.953125 C 52.316406 -32.359375 53.914062 -40.59375 56.75 -52.65625 C 59.269531 -63.207031 60.53125 -71.445312 60.53125 -77.375 C 60.53125 -84.363281 58.351562 -88.066406 54 -88.484375 L 54 -91.3125 C 58.039062 -91.726562 61.765625 -93.207031 65.171875 -95.75 C 68.585938 -98.300781 70.640625 -101.46875 71.328125 -105.25 C 71.953125 -101.519531 74.707031 -98.289062 79.59375 -95.5625 C 83.894531 -93.039062 88.09375 -91.625 92.1875 -91.3125 L 92.1875 -88.484375 C 86.675781 -88.484375 83.921875 -85.253906 83.921875 -78.796875 C 83.921875 -76.910156 84.207031 -74.757812 84.78125 -72.34375 L 93.90625 -29.125 C 94.644531 -25.5625 96.117188 -22.9375 98.328125 -21.25 C 97.847656 -23.664062 97.609375 -25.867188 97.609375 -27.859375 C 97.609375 -31.378906 98.289062 -35.84375 99.65625 -41.25 L 107.21875 -70.765625 C 107.53125 -72.179688 107.6875 -73.625 107.6875 -75.09375 C 107.6875 -78.25 106.703125 -81.070312 104.734375 -83.5625 C 102.765625 -86.050781 100.179688 -87.691406 96.984375 -88.484375 L 96.984375 -91.3125 C 104.804688 -92.257812 109.476562 -96.90625 111 -105.25 C 112.039062 -97.738281 116.65625 -93.09375 124.84375 -91.3125 Z M 124.84375 -88.484375 "/></g></g><g transform="translate(121.434999, 141.453125)"><g><path d="M 58.171875 -15.265625 C 54.390625 -13.273438 51.898438 -9.394531 50.703125 -3.625 C 49.117188 3.726562 47.515625 8.660156 45.890625 11.171875 C 42.378906 16.785156 35.820312 20.800781 26.21875 23.21875 L 26.21875 21.171875 C 32.613281 19.285156 35.8125 13.828125 35.8125 4.796875 L 35.8125 -49.28125 C 35.8125 -52.375 33.6875 -54.445312 29.4375 -55.5 C 27.863281 -55.8125 25.921875 -55.96875 23.609375 -55.96875 L 22.046875 -55.96875 L 22.046875 -28.890625 C 22.046875 -25.109375 22.4375 -22.351562 23.21875 -20.625 C 24.21875 -18.46875 26.238281 -16.679688 29.28125 -15.265625 C 26.03125 -13.429688 23.144531 -11.125 20.625 -8.34375 C 19.101562 -6.664062 17.082031 -3.625 14.5625 0.78125 C 12.300781 -3.207031 10.226562 -6.25 8.34375 -8.34375 C 6.132812 -11.070312 3.222656 -13.378906 -0.390625 -15.265625 C 2.703125 -16.578125 4.671875 -18.363281 5.515625 -20.625 C 6.191406 -22.351562 6.53125 -25.109375 6.53125 -28.890625 L 6.53125 -43.6875 C 6.53125 -50.925781 4.144531 -55.9375 -0.625 -58.71875 C 2.726562 -60.925781 4.828125 -63.050781 5.671875 -65.09375 C 6.347656 -66.832031 6.6875 -69.851562 6.6875 -74.15625 C 6.6875 -81.5 4.171875 -86.195312 -0.859375 -88.25 C 0.453125 -88.09375 1.472656 -88.015625 2.203125 -88.015625 C 6.140625 -88.015625 11.554688 -90.492188 18.453125 -95.453125 C 25.359375 -100.410156 30.648438 -102.890625 34.328125 -102.890625 C 37.941406 -102.890625 41.0625 -101.941406 43.6875 -100.046875 C 46.726562 -97.898438 48.25 -95.117188 48.25 -91.703125 C 48.25 -89.296875 47.488281 -87.289062 45.96875 -85.6875 C 44.445312 -84.082031 42.503906 -83.28125 40.140625 -83.28125 C 35.367188 -83.28125 32.984375 -85.484375 32.984375 -89.890625 C 32.984375 -91.578125 33.546875 -93.035156 34.671875 -94.265625 C 35.804688 -95.503906 37.210938 -96.125 38.890625 -96.125 C 42.242188 -96.125 44.132812 -94.046875 44.5625 -89.890625 C 44.71875 -90.734375 44.796875 -91.335938 44.796875 -91.703125 C 44.796875 -93.859375 43.925781 -95.644531 42.1875 -97.0625 C 40.457031 -98.476562 38.410156 -99.1875 36.046875 -99.1875 C 31.117188 -99.1875 27.445312 -96.691406 25.03125 -91.703125 C 23.039062 -87.660156 22.046875 -83.019531 22.046875 -77.78125 L 22.046875 -59.671875 C 27.710938 -59.671875 32.171875 -60.851562 35.421875 -63.21875 C 38.304688 -65.257812 41.035156 -69.007812 43.609375 -74.46875 C 45.554688 -70.0625 47.394531 -66.859375 49.125 -64.859375 C 51.269531 -62.398438 54.285156 -60.351562 58.171875 -58.71875 C 53.453125 -56.414062 51.09375 -52.535156 51.09375 -47.078125 L 51.09375 -29.125 C 51.09375 -24.5625 53.453125 -19.941406 58.171875 -15.265625 Z M 58.171875 -15.265625 "/></g></g><g transform="translate(182.992466, 141.453125)"><g><path d="M 55.03125 -14.875 C 51.40625 -12.832031 48.648438 -10.757812 46.765625 -8.65625 C 45.296875 -6.925781 43.507812 -4.039062 41.40625 0 C 36.582031 -8.707031 31.859375 -13.0625 27.234375 -13.0625 C 22.460938 -13.0625 17.6875 -8.707031 12.90625 0 C 10.382812 -4.664062 8.707031 -7.550781 7.875 -8.65625 C 5.976562 -10.96875 3.351562 -13.039062 0 -14.875 C 4.457031 -16.1875 6.6875 -20.203125 6.6875 -26.921875 C 6.6875 -31.691406 5.398438 -35.257812 2.828125 -37.625 C 5.609375 -36.363281 8.078125 -35.734375 10.234375 -35.734375 C 12.753906 -35.734375 15.613281 -36.890625 18.8125 -39.203125 C 22.007812 -41.515625 24.425781 -42.671875 26.0625 -42.671875 C 28.3125 -42.671875 30.75 -41.488281 33.375 -39.125 L 33.375 -48.09375 C 33.375 -49.988281 32.753906 -51.734375 31.515625 -53.328125 C 30.285156 -54.929688 28.804688 -55.734375 27.078125 -55.734375 C 22.410156 -55.734375 17.6875 -51.378906 12.90625 -42.671875 C 10.488281 -47.128906 8.8125 -49.960938 7.875 -51.171875 C 6.144531 -53.421875 3.519531 -55.441406 0 -57.234375 C 3.78125 -59.066406 6.484375 -61.140625 8.109375 -63.453125 C 9.160156 -64.921875 10.757812 -67.960938 12.90625 -72.578125 C 17.363281 -62.972656 22.140625 -58.171875 27.234375 -58.171875 C 32.222656 -58.171875 36.945312 -62.972656 41.40625 -72.578125 C 43.289062 -68.378906 45 -65.335938 46.53125 -63.453125 C 48.414062 -61.296875 51.25 -59.222656 55.03125 -57.234375 C 52.976562 -56.335938 51.304688 -54.800781 50.015625 -52.625 C 48.734375 -50.445312 48.09375 -48.203125 48.09375 -45.890625 L 48.09375 -28.5 C 48.09375 -24.820312 48.4375 -22.117188 49.125 -20.390625 C 50.007812 -18.128906 51.976562 -16.289062 55.03125 -14.875 Z M 33.375 -25.8125 L 33.375 -33.921875 C 32.007812 -37.546875 29.832031 -39.359375 26.84375 -39.359375 C 22.957031 -39.359375 21.015625 -35.421875 21.015625 -27.546875 C 21.015625 -23.878906 21.222656 -21.3125 21.640625 -19.84375 C 22.535156 -17.007812 24.347656 -15.59375 27.078125 -15.59375 C 31.273438 -15.59375 33.375 -19 33.375 -25.8125 Z M 33.375 -25.8125 "/></g></g><g transform="translate(240.928905, 141.453125)"><g><path d="M 35.109375 -46.4375 L 32.28125 -46.4375 L 32.28125 -48.734375 C 32.332031 -49.460938 32.359375 -50.25 32.359375 -51.09375 C 32.359375 -54.1875 31.78125 -56.242188 30.625 -57.265625 C 29.46875 -58.285156 27.265625 -58.796875 24.015625 -58.796875 L 24.015625 -29.515625 C 24.015625 -21.535156 26.453125 -16.367188 31.328125 -14.015625 C 27.285156 -11.804688 24.398438 -9.914062 22.671875 -8.34375 C 20.679688 -6.457031 18.660156 -3.675781 16.609375 0 C 14.296875 -4.039062 12.273438 -6.875 10.546875 -8.5 C 9.335938 -9.707031 6.425781 -11.546875 1.8125 -14.015625 C 4.695312 -15.429688 6.664062 -17.609375 7.71875 -20.546875 C 8.394531 -22.484375 8.734375 -25.472656 8.734375 -29.515625 L 8.734375 -58.796875 L 0 -58.796875 L 0 -64.625 L 8.734375 -64.625 L 8.734375 -78.015625 C 8.734375 -80.316406 7.554688 -82.492188 5.203125 -84.546875 C 4.929688 -84.859375 3.566406 -85.960938 1.109375 -87.859375 L 1.265625 -88.015625 C 3.359375 -88.222656 6.296875 -88.847656 10.078125 -89.890625 C 12.066406 -90.578125 15.976562 -93.070312 21.8125 -97.375 C 26.269531 -100.625 30.597656 -102.539062 34.796875 -103.125 L 34.71875 -101.546875 C 27.582031 -99.285156 24.015625 -91.492188 24.015625 -78.171875 L 24.015625 -64.625 C 28.054688 -64.625 30.492188 -65.175781 31.328125 -66.28125 C 31.960938 -67.070312 32.28125 -69.566406 32.28125 -73.765625 L 35.109375 -73.765625 Z M 35.109375 -46.4375 "/></g></g><g transform="translate(279.343283, 141.453125)"><g><path d="M 22.671875 -94.3125 C 19.835938 -81.976562 12.804688 -73.03125 1.578125 -67.46875 L -1.109375 -71.640625 C 1.671875 -73.941406 3.351562 -75.410156 3.9375 -76.046875 C 5.664062 -78.140625 6.53125 -80.265625 6.53125 -82.421875 C 6.53125 -85.410156 3.929688 -89.03125 -1.265625 -93.28125 L 10.9375 -105.328125 Z M 22.671875 -94.3125 "/></g></g><g transform="translate(305.556373, 141.453125)"><g><path d="M 56.125 -13.78125 C 41.851562 -13.78125 30.859375 -9.1875 23.140625 0 C 18.785156 -5.09375 14.429688 -7.640625 10.078125 -7.640625 C 5.828125 -7.640625 2.726562 -5.09375 0.78125 0 L 0 0 C 0.414062 -6.1875 1.832031 -10.617188 4.25 -13.296875 C 5.507812 -14.660156 8.039062 -16.25 11.84375 -18.0625 C 15.644531 -19.875 18.3125 -21.804688 19.84375 -23.859375 C 21.039062 -21.804688 23.03125 -19.519531 25.8125 -17 C 28.8125 -14.269531 31.332031 -12.90625 33.375 -12.90625 C 34.738281 -12.90625 35.421875 -13.71875 35.421875 -15.34375 L 35.421875 -26.921875 C 35.421875 -32.691406 31.75 -35.578125 24.40625 -35.578125 C 17 -35.578125 11.539062 -33.003906 8.03125 -27.859375 L 8.03125 -42.4375 C 8.03125 -49.039062 5.640625 -53.679688 0.859375 -56.359375 C 7.316406 -56.359375 13.800781 -57.75 20.3125 -60.53125 C 27.238281 -63.519531 32.328125 -67.507812 35.578125 -72.5 C 39.722656 -64.675781 45.835938 -59.296875 53.921875 -56.359375 L 53.0625 -56.359375 C 49.332031 -56.359375 46.140625 -55.175781 43.484375 -52.8125 C 40.835938 -50.457031 39.148438 -47.390625 38.421875 -43.609375 C 37.265625 -46.859375 35.453125 -50.007812 32.984375 -53.0625 C 29.992188 -56.832031 27.132812 -58.71875 24.40625 -58.71875 C 22.988281 -58.71875 22.28125 -57.929688 22.28125 -56.359375 C 22.28125 -50.378906 22.78125 -46.207031 23.78125 -43.84375 C 25.40625 -39.800781 28.757812 -37.78125 33.84375 -37.78125 C 39.9375 -37.78125 45.289062 -40.457031 49.90625 -45.8125 L 49.90625 -26.84375 C 49.90625 -20.644531 51.976562 -16.289062 56.125 -13.78125 Z M 56.125 -13.78125 "/></g></g><g transform="translate(363.886403, 141.453125)"><g/></g><g transform="translate(418.201814, 141.453125)"><g><path d="M 55.578125 -14.5625 C 51.585938 -12.675781 48.789062 -10.800781 47.1875 -8.9375 C 45.59375 -7.070312 43.796875 -4.09375 41.796875 0 C 37.128906 -9.445312 32.429688 -14.171875 27.703125 -14.171875 C 22.984375 -14.171875 18.316406 -9.445312 13.703125 0 C 11.441406 -4.664062 9.707031 -7.628906 8.5 -8.890625 C 6.769531 -10.785156 3.9375 -12.675781 0 -14.5625 C 1.988281 -15.613281 3.625 -17.28125 4.90625 -19.5625 C 6.195312 -21.84375 6.84375 -24.140625 6.84375 -26.453125 L 6.84375 -43.6875 C 6.84375 -47.414062 6.503906 -50.015625 5.828125 -51.484375 C 4.984375 -53.367188 3.039062 -55.046875 0 -56.515625 C 6.1875 -59.929688 10.78125 -65.257812 13.78125 -72.5 C 16.71875 -65.207031 21.28125 -59.878906 27.46875 -56.515625 C 24.476562 -55.046875 22.535156 -53.367188 21.640625 -51.484375 C 20.960938 -50.015625 20.625 -47.414062 20.625 -43.6875 L 20.625 -26.453125 C 20.625 -24.242188 21.265625 -22.273438 22.546875 -20.546875 C 23.835938 -18.816406 25.554688 -17.953125 27.703125 -17.953125 C 29.910156 -17.953125 31.644531 -18.765625 32.90625 -20.390625 C 34.164062 -22.015625 34.796875 -24.035156 34.796875 -26.453125 L 34.796875 -43.6875 C 34.796875 -47.570312 34.503906 -50.171875 33.921875 -51.484375 C 33.035156 -53.367188 31.097656 -55.046875 28.109375 -56.515625 C 34.296875 -59.929688 38.859375 -65.257812 41.796875 -72.5 C 44.679688 -65.207031 49.273438 -59.878906 55.578125 -56.515625 C 52.585938 -55.046875 50.671875 -53.367188 49.828125 -51.484375 C 49.097656 -50.015625 48.734375 -47.414062 48.734375 -43.6875 L 48.734375 -26.453125 C 48.734375 -24.140625 49.382812 -21.84375 50.6875 -19.5625 C 52 -17.28125 53.628906 -15.613281 55.578125 -14.5625 Z M 55.578125 -14.5625 "/></g></g><g transform="translate(477.00415, 141.453125)"><g><path d="M 54.15625 -15.515625 C 50.21875 -13.773438 47.304688 -11.753906 45.421875 -9.453125 C 44.109375 -7.816406 42.375 -4.664062 40.21875 0 C 37.757812 -5.351562 35.320312 -8.972656 32.90625 -10.859375 C 29.96875 -13.066406 25.769531 -14.171875 20.3125 -14.171875 L 20.3125 1.421875 C 20.3125 6.660156 22.617188 10.332031 27.234375 12.4375 C 23.617188 14.320312 20.785156 16.421875 18.734375 18.734375 C 17.421875 20.203125 15.53125 23.113281 13.0625 27.46875 C 10.28125 22.75 8.394531 19.785156 7.40625 18.578125 C 5.5625 16.421875 2.722656 14.375 -1.109375 12.4375 C 3.722656 10.226562 6.140625 5.796875 6.140625 -0.859375 C 6.140625 -5.535156 5.90625 -8.453125 5.4375 -9.609375 C 4.59375 -11.390625 2.492188 -13.359375 -0.859375 -15.515625 C 3.753906 -18.078125 6.0625 -22.796875 6.0625 -29.671875 L 6.0625 -44.078125 C 6.0625 -46.597656 5.507812 -49.273438 4.40625 -52.109375 C 3.039062 -55.628906 1.3125 -57.390625 -0.78125 -57.390625 C 1.519531 -57.390625 4.0625 -59.410156 6.84375 -63.453125 C 6.945312 -63.660156 8.601562 -66.703125 11.8125 -72.578125 C 15.632812 -63.921875 20.25 -59.59375 25.65625 -59.59375 C 31.164062 -59.59375 35.863281 -63.921875 39.75 -72.578125 C 42.320312 -63.765625 47.125 -58.703125 54.15625 -57.390625 C 49.695312 -56.128906 47.46875 -51.5625 47.46875 -43.6875 L 47.46875 -26.453125 C 47.46875 -21.203125 49.695312 -17.554688 54.15625 -15.515625 Z M 33.53125 -26.6875 L 33.53125 -46.6875 C 33.53125 -49.09375 33.0625 -51.21875 32.125 -53.0625 C 30.914062 -55.257812 29.179688 -56.359375 26.921875 -56.359375 C 22.304688 -56.359375 20.023438 -51.796875 20.078125 -42.671875 L 20.3125 -17.953125 C 23.351562 -17.796875 26.210938 -18.425781 28.890625 -19.84375 C 31.984375 -21.570312 33.53125 -23.851562 33.53125 -26.6875 Z M 33.53125 -26.6875 "/></g></g><g transform="translate(533.759819, 141.453125)"><g><path d="M 49.515625 -88.953125 C 46.941406 -85.804688 45.65625 -82.75 45.65625 -79.78125 C 45.65625 -76.8125 44.265625 -73.503906 41.484375 -69.859375 C 38.703125 -66.210938 37.3125 -63.890625 37.3125 -62.890625 C 37.3125 -61.316406 38.363281 -59.875 40.46875 -58.5625 C 32.4375 -57.675781 26.660156 -49.460938 23.140625 -33.921875 C 22.304688 -45.835938 17.269531 -54.394531 8.03125 -59.59375 C 14.007812 -61.113281 19.296875 -64.890625 23.890625 -70.921875 C 28.484375 -76.960938 30.78125 -83.101562 30.78125 -89.34375 C 30.78125 -92.382812 30.148438 -94.929688 28.890625 -96.984375 C 27.265625 -99.609375 25.113281 -100.921875 22.4375 -100.921875 C 21.070312 -100.921875 19.785156 -100.429688 18.578125 -99.453125 C 17.367188 -98.484375 16.765625 -97.398438 16.765625 -96.203125 C 16.765625 -94.253906 19.3125 -92.285156 24.40625 -90.296875 C 21.09375 -88.296875 18.285156 -84.726562 15.984375 -79.59375 C 14.035156 -75.175781 12.800781 -70.738281 12.28125 -66.28125 C 9.082031 -79.300781 4.988281 -87.304688 0 -90.296875 C 2.039062 -91.390625 3.429688 -92.148438 4.171875 -92.578125 C 5.585938 -93.515625 6.664062 -94.484375 7.40625 -95.484375 C 9.863281 -98.796875 12.164062 -101.078125 14.3125 -102.328125 C 16.46875 -103.585938 19.515625 -104.21875 23.453125 -104.21875 C 28.335938 -104.21875 32.644531 -102.253906 36.375 -98.328125 C 40.9375 -93.390625 45.316406 -90.265625 49.515625 -88.953125 Z M 39.359375 -16.375 C 34.953125 -13.800781 31.765625 -11.515625 29.796875 -9.515625 C 27.828125 -7.523438 25.554688 -4.351562 22.984375 0 C 20.460938 -4.300781 18.175781 -7.488281 16.125 -9.5625 C 14.082031 -11.632812 10.882812 -13.90625 6.53125 -16.375 C 10.9375 -19 14.125 -21.296875 16.09375 -23.265625 C 18.0625 -25.234375 20.359375 -28.394531 22.984375 -32.75 C 25.609375 -28.125 27.828125 -24.90625 29.640625 -23.09375 C 31.453125 -21.289062 34.691406 -19.050781 39.359375 -16.375 Z M 39.359375 -16.375 "/></g></g></g></g></g></g></svg>